<?xml version="1.0" standalone="no"?>
<!DOCTYPE svg PUBLIC "-//W3C//DTD SVG 20010904//EN"
 "http://www.w3.org/TR/2001/REC-SVG-20010904/DTD/svg10.dtd">
<svg version="1.0" xmlns="http://www.w3.org/2000/svg"
 width="1098.000000pt" height="368.000000pt" viewBox="0 0 1098.000000 368.000000"
 preserveAspectRatio="xMidYMid meet">

<g transform="translate(0.000000,368.000000) scale(0.100000,-0.100000)"
fill="#fff" stroke="none">
<path d="M3297 3649 c-69 -45 -135 -124 -176 -209 l-36 -75 0 -195 c0 -131 4
-206 13 -229 9 -25 12 -133 12 -406 0 -292 -3 -373 -12 -372 -46 1 -68 -5 -68
-18 0 -8 5 -15 10 -15 6 0 10 -13 10 -29 0 -35 13 -46 30 -26 23 27 30 15 30
-50 0 -37 -4 -65 -10 -65 -5 0 -10 -18 -10 -40 0 -22 5 -40 10 -40 6 0 10
-127 10 -360 0 -258 -3 -360 -11 -360 -23 0 -568 -84 -879 -135 -593 -98
-1214 -216 -1795 -341 -164 -35 -300 -64 -302 -64 -2 0 -3 -34 -3 -75 l0 -75
5105 0 5105 0 2 333 3 332 183 3 c110 1 182 6 182 12 0 6 -71 10 -185 10
l-185 0 0 168 0 169 233 6 c127 4 274 7 325 7 63 0 92 4 92 12 0 8 -86 10
-346 5 l-347 -7 -38 35 c-69 62 -114 80 -204 80 -88 0 -118 -11 -192 -71 -29
-24 -51 -34 -75 -33 -32 0 -31 1 22 25 110 50 170 143 170 263 l0 58 122 6
c66 4 228 7 360 7 168 0 238 3 238 11 0 8 -110 10 -402 7 -380 -4 -406 -6
-462 -26 -82 -30 -120 -63 -156 -135 -24 -49 -31 -77 -33 -135 l-2 -72 -75 6
c-127 9 -134 13 -71 36 71 27 133 89 154 154 20 63 31 147 22 175 -7 20 -12
21 -59 15 -174 -20 -262 -110 -275 -280 -3 -44 -9 -80 -13 -78 -5 1 -52 2
-105 2 l-98 1 60 28 c107 50 155 128 163 264 l5 77 -40 0 c-91 0 -204 -52
-246 -115 l-24 -35 5 76 5 77 -58 -8 c-114 -14 -192 -54 -235 -122 l-28 -43 6
86 5 87 -59 -8 c-112 -14 -186 -53 -235 -125 l-26 -38 5 79 5 79 -34 0 c-84 0
-185 -43 -236 -98 l-33 -36 0 63 0 64 -55 -7 c-117 -13 -203 -64 -245 -145
l-18 -36 5 76 c3 46 2 79 -4 82 -18 11 -134 -13 -182 -38 -55 -29 -69 -41 -99
-79 l-22 -29 0 73 0 73 -62 -7 c-57 -6 -143 -38 -179 -68 -9 -7 -28 -31 -43
-52 l-26 -39 0 51 c0 28 -4 53 -9 56 -16 10 -134 -15 -180 -39 -26 -13 -64
-40 -84 -61 l-37 -38 0 44 c0 25 -3 55 -6 66 -5 20 -9 21 -47 12 -155 -35
-237 -121 -253 -265 l-7 -63 -38 0 -39 0 30 43 c17 24 34 66 40 97 10 54 5
156 -10 180 -16 26 -162 -34 -217 -89 -44 -43 -65 -96 -71 -174 -3 -46 -9 -70
-19 -74 -22 -9 -24 1 -8 41 11 27 15 63 13 129 -3 87 -4 92 -26 95 -32 5 -112
-24 -166 -59 -55 -37 -84 -82 -106 -163 -10 -40 -21 -61 -30 -61 -9 0 -13 7
-11 15 8 28 13 180 7 206 -6 24 -10 25 -44 20 -62 -11 -159 -64 -196 -108 -33
-39 -46 -66 -60 -130 -4 -16 -13 -28 -22 -28 -11 0 -14 5 -9 17 4 10 9 51 12
91 5 58 3 72 -8 72 -48 0 -148 -24 -190 -45 -26 -14 -51 -25 -54 -25 -3 0 -5
65 -5 145 l0 146 -99 -7 -98 -7 -11 59 -11 59 5 -57 5 -58 -28 0 c-15 0 -51
-3 -80 -6 -44 -6 -52 -4 -56 12 -4 17 -5 17 -6 2 -1 -14 -10 -18 -40 -18 -36
0 -44 -6 -105 -74 l-66 -73 0 -107 0 -106 -51 -49 c-28 -27 -59 -51 -70 -54
-17 -4 -19 1 -19 39 0 49 3 48 -89 34 -72 -12 -145 -46 -180 -84 -31 -33 -91
-37 -91 -6 0 11 -7 20 -15 20 -13 0 -15 100 -15 839 l0 838 113 -22 c61 -13
212 -42 335 -65 217 -42 222 -44 222 -68 0 -22 -3 -24 -40 -20 l-40 4 0 -63
c0 -44 4 -63 13 -63 9 0 19 -49 35 -162 24 -169 40 -230 52 -206 4 7 -5 92
-19 188 l-27 175 39 3 c22 2 43 0 47 -5 5 -4 25 -82 45 -173 21 -91 41 -169
45 -175 4 -5 10 -19 13 -30 3 -11 5 -4 6 18 0 20 -15 107 -34 191 -19 85 -35
159 -35 165 0 6 14 11 30 11 29 0 30 2 30 44 0 45 0 45 -42 53 -35 7 -42 13
-40 29 2 10 5 20 6 21 1 2 35 -4 75 -11 54 -10 74 -11 77 -2 21 56 71 242 65
247 -3 4 -397 88 -876 189 -478 100 -871 183 -873 184 -1 2 2 27 8 56 15 82
15 83 -45 113 -31 15 -57 27 -59 27 -1 0 -24 -14 -49 -31z m328 -509 c132 -29
241 -53 243 -54 2 -3 -212 -1757 -223 -1823 -5 -31 -7 -32 -71 -39 -36 -3
-153 -19 -260 -33 l-195 -27 2 463 c2 436 3 463 19 448 21 -19 30 -10 30 27 0
15 5 28 10 28 6 0 10 7 10 15 0 8 -9 15 -20 15 -20 0 -20 7 -20 289 l0 289 30
11 c37 12 39 17 121 264 37 110 66 184 73 182 6 -2 119 -27 251 -55z m328 -71
l37 -10 0 -404 0 -405 -97 -2 -98 -2 98 -3 97 -4 0 -44 0 -45 -105 0 c-91 0
-105 2 -105 16 0 9 25 217 55 461 30 245 55 447 55 449 0 7 23 4 63 -7z m-814
-601 c1 -193 -3 -298 -9 -298 -6 0 -10 114 -9 323 1 177 5 311 9 297 4 -14 8
-159 9 -322z m851 -582 l0 -243 -92 -7 c-50 -3 -113 -6 -140 -6 -49 0 -49 0
-44 28 3 15 17 127 32 250 l27 222 109 0 108 0 0 -244z m5333 24 c16 -63 -29
-206 -80 -252 -29 -27 -123 -66 -175 -73 l-48 -7 0 58 c0 75 12 118 49 176 32
50 102 91 181 107 66 13 67 13 73 -9z m-615 -67 c-7 -114 -55 -191 -147 -238
-43 -22 -145 -32 -155 -16 -10 16 11 147 30 184 42 83 143 144 243 146 l34 1
-5 -77z m312 17 c0 -155 -98 -261 -257 -277 l-56 -6 8 69 c11 112 57 193 130
232 44 23 105 41 143 41 l32 1 0 -60z m620 -76 c-18 -84 -58 -137 -132 -173
-35 -17 -87 -34 -117 -38 l-54 -6 6 73 c13 158 99 250 252 269 l50 6 3 -40 c2
-22 -1 -63 -8 -91z m-1235 116 c10 -17 -14 -148 -34 -188 -39 -75 -117 -124
-220 -138 l-54 -7 5 79 c6 94 29 146 88 197 61 52 196 88 215 57z m-299 -67
c-16 -158 -105 -252 -257 -270 l-49 -6 0 55 c0 168 109 284 269 287 l44 1 -7
-67z m1851 -13 c-6 -74 -34 -150 -70 -188 -38 -41 -164 -92 -227 -92 -15 0
-12 101 6 159 17 57 69 122 118 148 34 18 118 41 155 42 24 1 24 0 18 -69z
m-2470 -13 c-3 -40 -13 -91 -22 -113 -35 -84 -124 -145 -233 -160 l-52 -7 0
46 c0 160 79 261 230 293 88 20 84 23 77 -59z m301 -4 c-6 -94 -29 -145 -90
-197 -42 -36 -110 -62 -178 -68 l-35 -3 3 69 c4 108 51 194 127 234 38 19 111
40 149 41 l29 1 -5 -77z m-620 -60 c-9 -157 -88 -236 -266 -267 -43 -7 -48 7
-33 96 22 135 77 199 201 234 25 7 58 13 74 13 l29 1 -5 -77z m-302 20 c10
-70 -9 -169 -43 -217 -34 -48 -160 -119 -202 -114 -25 3 -26 6 -29 73 -4 102
12 150 73 211 36 37 67 57 110 72 33 11 65 21 72 21 7 1 15 -20 19 -46z m-320
1 c10 -57 -1 -156 -24 -201 -34 -65 -123 -126 -205 -140 l-34 -5 -7 53 c-7 60
5 143 28 188 22 42 92 98 150 120 74 29 84 27 92 -15z m2164 -45 c-6 -18 -10
-57 -10 -85 l0 -51 -76 -7 c-42 -4 -78 -5 -81 -2 -3 2 13 14 35 25 53 27 108
85 123 128 14 44 22 38 9 -8z m-2476 -20 c17 -84 -3 -184 -47 -243 -32 -41
-134 -96 -184 -99 l-38 -2 -3 70 c-2 39 2 89 9 112 22 79 97 145 204 179 54
17 52 18 59 -17z m2158 -56 l-4 -73 -48 0 c-26 0 -69 -2 -96 -5 l-49 -6 41 18
c63 28 111 64 136 104 13 21 23 36 24 36 0 -1 -1 -35 -4 -74z m610 0 l-4 -63
-76 0 -77 0 43 21 c23 12 59 41 80 64 20 24 37 42 37 42 1 -1 -1 -30 -3 -64z
m-1216 -23 l-1 -80 -46 0 c-25 0 -68 -3 -95 -6 l-49 -6 63 32 c61 31 122 94
122 127 0 7 2 13 4 13 2 0 3 -36 2 -80z m-1880 24 c17 -90 -15 -201 -73 -256
-33 -32 -125 -75 -168 -80 l-30 -3 -3 72 c-4 89 9 137 48 191 28 39 97 83 160
103 49 15 59 11 66 -27z m1566 -36 c-2 -40 -5 -74 -6 -74 0 -1 -44 -5 -96 -8
l-95 -6 40 17 c65 27 120 69 140 107 11 20 20 36 20 36 0 0 -1 -33 -3 -72z
m603 -47 c-4 -3 -48 -7 -98 -8 -92 -3 -92 -3 -49 11 52 17 119 62 135 90 11
18 12 14 15 -33 2 -29 0 -56 -3 -60z m-4087 -108 l-3 -178 -85 -2 c-47 -1
-107 -8 -135 -17 -27 -9 -61 -16 -75 -16 l-26 0 23 183 c12 100 22 185 23 189
0 4 53 9 118 11 64 1 127 4 140 5 l22 2 -2 -177z m3178 122 l-1 -55 -44 0 -44
0 25 19 c13 11 33 35 43 55 11 20 20 36 20 36 1 0 1 -25 1 -55z m3006 13 c31
-16 66 -41 79 -54 l22 -24 -21 -23 c-44 -47 -128 -89 -190 -94 -50 -5 -69 -1
-117 21 -31 14 -75 40 -97 58 l-41 32 39 34 c110 95 211 111 326 50z m-4594
-71 c-10 -156 -89 -234 -267 -262 l-44 -7 5 74 c10 159 119 264 277 267 l34 1
-5 -73z m3722 32 c300 -17 356 -28 107 -22 -299 8 -679 7 -942 -2 -121 -4
-227 -7 -235 -7 -8 -1 -45 3 -82 7 -46 5 -68 4 -68 -3 0 -18 -111 -24 -155 -8
l-39 14 74 6 c270 24 1036 33 1340 15z m-4050 -52 c0 -161 -97 -268 -256 -284
l-54 -6 0 50 c0 171 105 274 298 292 8 1 12 -16 12 -52z m1596 18 c-3 -8 -12
-15 -21 -15 -14 0 -14 3 2 24 18 24 30 18 19 -9z m924 -9 c0 -18 -81 -26 -125
-12 l-30 10 25 7 c14 4 49 7 78 8 39 1 52 -3 52 -13z m186 -22 c64 -30 107
-82 129 -157 16 -54 20 -147 7 -147 -36 0 -135 26 -173 46 -80 40 -120 109
-134 233 l-7 64 61 -6 c34 -4 87 -19 117 -33z m601 4 c99 -36 163 -139 163
-261 l0 -50 -54 6 c-159 16 -256 123 -256 284 l0 53 48 -7 c26 -3 70 -14 99
-25z m304 7 c101 -36 157 -117 166 -241 l6 -76 -54 7 c-58 7 -151 45 -182 73
-39 35 -70 114 -75 191 l-5 74 51 -7 c28 -4 70 -13 93 -21z m288 8 c109 -35
171 -119 179 -242 l5 -74 -60 5 c-153 14 -253 125 -253 280 l0 48 39 0 c21 0
62 -7 90 -17z m-1526 -18 c111 -38 177 -137 177 -268 l0 -50 -56 7 c-160 19
-254 121 -254 278 l0 59 48 -7 c26 -3 64 -12 85 -19z m634 -5 c99 -43 153
-132 153 -250 l0 -60 -47 7 c-167 21 -263 126 -263 286 l0 50 54 -6 c30 -3 76
-15 103 -27z m1240 5 c97 -41 150 -121 160 -245 l6 -72 -29 5 c-16 3 -47 9
-68 12 -63 10 -133 51 -166 97 -33 46 -46 84 -56 172 l-7 59 61 -6 c34 -4 79
-14 99 -22z m-2027 1 c0 -20 -90 -30 -195 -21 -74 6 -85 5 -85 -9 0 -12 -10
-16 -35 -16 -39 0 -436 -41 -630 -65 -66 -8 -140 -16 -165 -19 -25 -2 -173
-22 -330 -45 -369 -54 -1031 -166 -1484 -251 -60 -11 -128 -20 -150 -20 -23
-1 -59 -8 -81 -16 -59 -23 -148 -42 -248 -54 -49 -6 -105 -17 -125 -25 -20 -9
-95 -27 -166 -40 -72 -13 -169 -34 -216 -46 -47 -11 -125 -25 -175 -29 -90 -8
-125 -16 -135 -32 -3 -4 -78 -23 -165 -42 -88 -19 -325 -71 -528 -115 -530
-117 -515 -105 33 27 157 38 317 76 355 85 293 70 483 113 625 142 91 19 260
54 375 79 116 24 320 65 455 90 135 25 304 57 375 71 631 120 1609 260 2310
329 410 41 385 40 385 22z m2274 -11 c63 -10 133 -51 166 -97 34 -47 48 -88
57 -172 l6 -59 -62 6 c-159 17 -245 106 -258 269 l-6 70 29 -5 c16 -3 47 -9
68 -12z m-4808 -77 c-8 -96 -44 -168 -100 -207 -47 -33 -133 -61 -184 -61
l-35 0 7 66 c15 151 83 228 226 260 98 22 94 24 86 -58z m2391 37 c117 -35
182 -121 191 -253 l5 -73 -44 7 c-173 24 -257 106 -267 261 l-5 73 35 0 c19 0
57 -7 85 -15z m-2739 -98 c-10 -156 -89 -234 -267 -262 l-44 -7 5 74 c10 159
119 264 277 267 l34 1 -5 -73z m2489 33 c95 -44 133 -105 149 -244 l7 -59 -58
6 c-87 9 -180 58 -215 114 -31 48 -50 119 -50 184 l0 41 53 -7 c28 -4 80 -19
114 -35z m-339 -10 c49 -13 118 -56 142 -89 29 -41 46 -95 55 -170 l7 -64 -61
6 c-160 17 -247 107 -259 269 l-5 69 44 -7 c24 -3 59 -10 77 -14z m-265 -35
c111 -38 177 -137 177 -268 l0 -50 -56 7 c-160 19 -254 121 -254 278 l0 59 48
-7 c26 -3 64 -12 85 -19z m-2243 -38 c0 -161 -97 -268 -256 -284 l-54 -6 0 50
c0 171 105 274 298 292 8 1 12 -16 12 -52z m1961 -19 c57 -17 113 -70 148
-140 40 -79 40 -95 -1 -104 -60 -13 -164 -7 -203 12 -53 25 -104 78 -131 138
-34 77 -34 89 1 97 50 11 145 10 186 -3z m-2293 -81 c-10 -156 -89 -234 -267
-262 l-44 -7 5 74 c10 159 119 264 277 267 l34 1 -5 -73z m1963 51 c22 -6 57
-26 78 -45 39 -33 101 -140 101 -174 0 -22 -42 -32 -131 -31 -109 0 -182 49
-232 154 -38 77 -38 91 -2 99 50 11 145 10 186 -3z m-2304 -103 c-15 -163
-100 -247 -271 -270 l-49 -7 6 66 c10 109 59 195 132 234 46 24 106 41 149 41
l39 1 -6 -65z m2004 43 c57 -17 113 -70 148 -140 40 -79 40 -95 -1 -104 -60
-13 -164 -7 -203 12 -53 25 -104 78 -131 138 -34 77 -34 89 1 97 50 11 145 10
186 -3z m-360 -60 c22 -6 57 -26 78 -45 39 -33 101 -140 101 -174 0 -22 -42
-32 -132 -31 -110 0 -190 56 -238 165 -30 68 -29 80 5 88 50 11 145 10 186 -3z
m-2035 -90 c-8 -96 -44 -168 -100 -207 -47 -33 -133 -61 -184 -61 l-35 0 7 66
c15 151 83 228 226 260 98 22 94 24 86 -58z m1705 40 c22 -6 57 -26 78 -45 39
-33 101 -140 101 -174 0 -22 -42 -32 -132 -31 -118 0 -201 65 -250 194 -19 51
-19 51 27 61 41 9 139 7 176 -5z m-308 -70 c71 -40 166 -193 137 -222 -6 -6
-52 -11 -108 -11 -88 0 -101 3 -143 27 -27 16 -60 48 -78 74 -32 50 -67 131
-59 140 3 2 25 9 49 14 65 13 155 4 202 -22z m-378 -67 c22 -10 55 -33 74 -52
32 -32 91 -140 91 -166 0 -14 -75 -28 -144 -26 -104 2 -183 60 -233 170 -38
82 -30 89 102 91 49 1 82 -4 110 -17z m-312 -83 c71 -40 166 -193 137 -222 -6
-6 -52 -11 -108 -11 -88 0 -101 3 -143 27 -27 16 -60 48 -78 74 -32 50 -67
131 -59 140 3 2 25 9 49 14 65 13 155 4 202 -22z m-405 -38 c84 -20 157 -92
193 -192 17 -50 8 -58 -79 -65 -137 -11 -215 34 -278 163 -21 41 -35 77 -32
79 7 8 87 23 123 24 17 0 49 -4 73 -9z m1882 -55 c118 -9 469 -35 780 -60
1390 -109 1636 -116 2230 -59 205 19 550 66 778 104 95 17 176 30 180 29 30
-3 -511 -144 -708 -184 -347 -71 -296 -68 -1170 -73 -824 -4 -1025 2 -1423 38
-472 43 -1101 65 -1592 56 -192 -3 -381 -8 -420 -11 -66 -4 -68 -4 -25 6 25 6
49 14 53 18 4 5 -1 31 -11 59 -23 59 -11 74 32 41 58 -46 175 -62 272 -38 47
12 49 15 35 52 -9 23 -7 25 31 31 26 4 67 0 111 -10 61 -15 80 -16 141 -5 39
6 75 17 81 23 12 13 313 5 625 -17z m-2185 -49 c49 -22 120 -90 145 -136 14
-27 10 -30 -68 -60 -32 -12 -77 -20 -115 -20 -53 0 -71 5 -117 33 -51 30 -130
118 -130 143 0 10 54 35 120 57 40 14 118 6 165 -17z m542 -46 c25 -22 64 -45
87 -51 76 -21 85 -28 35 -28 -25 -1 -67 -4 -93 -7 -36 -5 -46 -4 -46 7 0 8
-11 38 -25 67 -13 28 -19 52 -14 52 6 0 31 -18 56 -40z m-362 -41 c22 -23 57
-49 78 -59 l38 -17 -47 -7 c-66 -9 -86 -8 -79 4 8 12 -15 52 -53 93 l-26 27
25 0 c16 0 39 -15 64 -41z m-409 -58 l49 -49 -50 -6 c-98 -11 -972 -16 -935
-5 41 11 783 106 846 108 36 1 47 -5 90 -48z m-779 -7 c-3 -3 -12 -4 -19 -1
-8 3 -5 6 6 6 11 1 17 -2 13 -5z m-40 -10 c-3 -3 -12 -4 -19 -1 -8 3 -5 6 6 6
11 1 17 -2 13 -5z"/>
<path d="M2250 3265 l0 -65 -42 0 c-211 -1 -363 -147 -376 -359 -13 -234 128
-405 345 -419 l73 -5 0 -78 0 -79 90 0 89 0 3 78 3 77 70 7 c166 15 268 92
326 247 18 47 20 72 17 161 -3 89 -8 114 -31 162 -58 120 -171 195 -312 205
l-75 6 0 63 0 64 -90 0 -90 0 0 -65z m0 -456 l0 -222 -50 5 c-104 10 -180 100
-180 214 0 134 77 217 208 223 l22 1 0 -221z m260 210 c97 -22 150 -95 150
-209 0 -130 -80 -220 -195 -220 l-35 0 0 213 c0 118 3 217 7 220 8 9 19 9 73
-4z"/>
<path d="M9850 3320 c-93 -15 -168 -45 -248 -98 -11 -7 -4 -24 28 -78 23 -38
44 -71 46 -73 2 -2 25 7 51 21 107 58 232 74 308 39 50 -22 64 -40 72 -84 7
-43 -17 -92 -55 -111 -44 -22 -127 -36 -222 -36 l-90 0 0 -84 0 -83 111 -8
c136 -8 200 -26 246 -69 30 -27 35 -38 35 -74 -1 -93 -70 -143 -207 -150 -90
-5 -209 15 -281 48 l-45 19 3 -97 3 -96 60 -19 c45 -15 100 -21 217 -24 140
-5 164 -3 227 16 84 26 145 70 186 136 28 45 30 55 30 145 0 88 -2 100 -27
138 -32 48 -92 86 -167 105 l-53 14 59 21 c68 25 128 77 151 131 8 20 15 66
15 103 0 109 -58 185 -173 229 -60 23 -199 32 -280 19z"/>
<path d="M8781 2808 c-90 -282 -166 -519 -169 -525 -3 -10 22 -13 107 -13
l110 0 11 43 c7 23 22 78 34 122 l23 80 171 3 171 2 17 -57 c8 -32 25 -88 35
-125 l20 -68 109 0 108 0 -24 78 c-13 42 -88 277 -167 522 l-143 445 -125 3
-124 3 -164 -513z m353 105 c31 -111 56 -205 56 -208 0 -3 -55 -5 -121 -5
-111 0 -121 2 -116 18 2 9 28 106 58 214 30 109 57 194 60 190 4 -4 32 -98 63
-209z"/>
<path d="M130 2790 l0 -520 100 0 100 0 0 225 0 225 188 -2 187 -3 3 -222 2
-223 100 0 100 0 0 520 0 520 -100 0 -100 0 -2 -202 -3 -203 -185 0 -185 0 -3
203 -2 202 -100 0 -100 0 0 -520z"/>
<path d="M1150 2790 l0 -520 275 0 275 0 0 90 0 90 -175 0 -175 0 0 135 0 135
160 0 160 0 0 90 0 90 -160 0 -160 0 0 115 0 115 175 0 175 0 0 90 0 90 -275
0 -275 0 0 -520z"/>
<path d="M5350 2789 l0 -521 208 4 c231 5 272 14 354 73 146 107 141 399 -10
497 -72 47 -122 61 -239 66 l-113 5 0 198 0 199 -100 0 -100 0 0 -521z m365
-70 c74 -19 111 -81 94 -158 -16 -73 -88 -111 -209 -111 l-50 0 0 140 0 140
61 0 c33 0 80 -5 104 -11z"/>
<path d="M6550 2790 l0 -520 123 0 122 0 214 391 c118 214 217 391 220 393 3
2 5 -173 3 -390 l-3 -394 86 0 85 0 0 520 0 520 -119 0 -120 0 -211 -382
c-117 -211 -215 -386 -218 -390 -4 -4 -6 168 -4 382 l4 390 -91 0 -91 0 0
-520z"/>
<path d="M7990 2790 l0 -520 100 0 100 0 0 430 0 430 200 0 200 0 0 90 0 90
-300 0 -300 0 0 -520z"/>
<path d="M4913 2290 c0 -25 2 -35 4 -22 2 12 2 32 0 45 -2 12 -4 2 -4 -23z"/>
<path d="M5062 2300 c-1 -14 3 -43 7 -65 6 -26 9 -31 9 -15 1 14 -3 43 -7 65
-6 26 -9 31 -9 15z"/>
<path d="M4923 2195 c0 -27 2 -38 4 -22 2 15 2 37 0 50 -2 12 -4 0 -4 -28z"/>
<path d="M5082 2170 c-1 -14 3 -43 7 -65 6 -26 9 -31 9 -15 1 14 -3 43 -7 65
-6 26 -9 31 -9 15z"/>
<path d="M4933 2095 c0 -27 2 -38 4 -22 2 15 2 37 0 50 -2 12 -4 0 -4 -28z"/>
<path d="M5102 2040 c-1 -14 3 -43 7 -65 6 -26 9 -31 9 -15 1 14 -3 43 -7 65
-6 26 -9 31 -9 15z"/>
<path d="M4943 1995 c0 -27 2 -38 4 -22 2 15 2 37 0 50 -2 12 -4 0 -4 -28z"/>
<path d="M4953 1895 c0 -27 2 -38 4 -22 2 15 2 37 0 50 -2 12 -4 0 -4 -28z"/>
<path d="M128 1814 c-5 -4 -8 -133 -8 -287 l0 -279 38 6 c67 11 493 55 672 71
691 58 1308 40 1940 -59 85 -14 156 -23 158 -21 8 8 -293 147 -418 193 -472
174 -1134 307 -1770 356 -244 19 -603 31 -612 20z m467 -24 c712 -46 1442
-188 1932 -376 145 -56 342 -150 293 -140 -62 12 -412 57 -575 73 -145 14
-273 18 -660 18 -517 0 -622 -6 -1160 -65 -148 -17 -273 -30 -277 -30 -4 0 -8
119 -8 265 l0 265 148 0 c81 0 219 -5 307 -10z"/>
<path d="M2190 1681 c311 -108 569 -230 765 -360 55 -36 106 -70 113 -74 16
-11 2 19 -70 142 -73 123 -112 175 -202 269 l-80 82 -345 -1 -346 0 165 -58z
m564 -2 c31 -28 78 -79 106 -114 51 -65 173 -256 166 -262 -2 -2 -43 22 -92
53 -174 109 -526 271 -746 344 -38 12 -68 24 -68 26 0 2 130 4 289 4 l289 0
56 -51z"/>
<path d="M1085 1230 c-269 -16 -950 -82 -962 -93 -2 -2 -2 -96 -1 -208 l3
-204 300 77 c713 185 1126 270 1740 358 154 22 287 41 295 41 8 1 -61 8 -155
15 -212 16 -1019 25 -1220 14z m837 -11 c166 -6 321 -14 343 -18 36 -6 31 -8
-55 -19 -472 -62 -997 -166 -1599 -317 -251 -63 -459 -115 -463 -115 -5 0 -8
86 -8 190 0 145 3 190 13 190 6 0 116 11 242 25 621 67 1007 83 1527 64z"/>
<path d="M130 205 c0 -108 1 -115 20 -115 17 0 20 7 20 50 l0 50 85 0 85 0 0
-50 c0 -43 3 -50 20 -50 19 0 20 7 20 115 0 107 -1 115 -19 115 -17 0 -20 -8
-23 -52 l-3 -53 -80 0 -80 0 -3 53 c-3 44 -6 52 -23 52 -18 0 -19 -8 -19 -115z"/>
<path d="M760 205 l0 -115 80 0 c91 0 109 17 23 22 l-58 3 -3 38 -3 37 50 0
c64 0 67 18 4 22 l-48 3 0 40 0 40 50 3 c86 5 76 22 -13 22 l-82 0 0 -115z"/>
<path d="M1410 306 c0 -9 -16 -17 -42 -21 -113 -19 -119 -143 -7 -161 22 -4
43 -13 46 -20 7 -18 43 -18 43 0 0 8 16 16 42 19 48 6 88 43 88 81 0 33 -35
65 -86 78 -24 7 -44 18 -44 25 0 7 -9 13 -20 13 -11 0 -20 -6 -20 -14z m0
-108 l0 -60 -32 6 c-67 13 -78 79 -19 108 19 9 38 15 43 12 4 -3 8 -32 8 -66z
m118 35 c23 -31 14 -61 -25 -82 -45 -23 -53 -16 -53 53 l0 65 33 -10 c17 -5
38 -17 45 -26z"/>
<path d="M1920 310 c0 -5 20 -10 45 -10 l45 0 0 -105 c0 -98 1 -105 20 -105
18 0 20 8 22 103 l3 102 40 3 c22 2 44 8 50 13 5 5 -35 9 -108 9 -71 0 -117
-4 -117 -10z"/>
<path d="M2560 313 c-54 -20 -68 -81 -25 -109 21 -14 23 -19 12 -28 -8 -6 -26
-28 -42 -49 l-27 -37 24 0 c17 0 33 13 56 45 26 36 37 45 62 45 29 0 30 -2 30
-45 0 -38 3 -45 20 -45 19 0 20 7 20 115 l0 115 -57 -1 c-32 0 -65 -3 -73 -6z
m90 -63 l0 -50 -34 0 c-61 0 -88 53 -44 84 12 9 35 16 50 16 27 0 28 -2 28
-50z"/>
<path d="M3080 205 c0 -108 1 -115 20 -115 17 0 20 7 20 50 l0 50 85 0 85 0 0
-50 c0 -43 3 -50 20 -50 19 0 20 7 20 115 0 107 -1 115 -19 115 -17 0 -20 -8
-23 -52 l-3 -53 -80 0 -80 0 -3 53 c-3 44 -6 52 -23 52 -18 0 -19 -8 -19 -115z"/>
<path d="M3789 298 c-6 -13 -34 -65 -61 -115 -49 -92 -49 -93 -25 -93 18 0 28
8 37 30 12 29 15 30 75 30 60 0 63 -1 75 -30 9 -21 19 -30 36 -30 23 0 22 4
-36 113 -32 61 -66 113 -74 115 -8 2 -20 -7 -27 -20z m71 -120 c0 -5 -20 -8
-45 -8 -25 0 -45 2 -45 5 0 2 10 25 22 50 l22 46 23 -43 c12 -24 22 -46 23
-50z"/>
<path d="M4360 313 c-54 -20 -68 -81 -25 -109 21 -14 23 -19 12 -28 -8 -6 -26
-28 -42 -49 l-27 -37 24 0 c17 0 33 13 56 45 26 36 37 45 62 45 29 0 30 -2 30
-45 0 -38 3 -45 20 -45 19 0 20 7 20 115 l0 115 -57 -1 c-32 0 -65 -3 -73 -6z
m90 -63 l0 -50 -34 0 c-61 0 -88 53 -44 84 12 9 35 16 50 16 27 0 28 -2 28
-50z"/>
<path d="M5700 205 c0 -108 1 -115 20 -115 17 0 20 7 20 50 0 48 1 50 29 50
28 0 73 -39 99 -85 5 -10 18 -15 32 -13 23 3 22 5 -23 60 -37 45 -43 59 -33
68 8 6 19 24 26 40 8 18 20 30 31 30 11 0 19 7 19 16 0 30 -52 12 -77 -26 -34
-55 -51 -70 -78 -70 -24 0 -25 3 -25 55 0 48 -2 55 -20 55 -19 0 -20 -7 -20
-115z"/>
<path d="M6354 309 c-81 -23 -113 -117 -58 -173 61 -60 187 -60 248 0 20 21
26 37 26 69 0 86 -104 137 -216 104z m95 -15 c46 -9 81 -47 81 -86 0 -46 -24
-75 -70 -88 -78 -21 -150 18 -150 81 0 44 11 60 54 80 47 21 44 21 85 13z"/>
<path d="M6950 205 c0 -108 1 -115 20 -115 18 0 20 7 20 88 l1 87 55 -60 55
-60 55 59 54 59 0 -86 c0 -80 2 -87 20 -87 19 0 20 7 20 115 0 106 -2 115 -19
115 -10 0 -41 -27 -72 -65 l-54 -64 -58 64 c-34 37 -67 65 -78 65 -18 0 -19
-8 -19 -115z"/>
<path d="M7630 205 c0 -108 1 -115 20 -115 18 0 20 8 22 103 l3 102 75 0 75 0
3 -102 c2 -95 4 -103 22 -103 19 0 20 7 20 115 l0 115 -120 0 -120 0 0 -115z"/>
<path d="M8329 298 c-6 -13 -34 -65 -61 -115 -49 -92 -49 -93 -25 -93 18 0 28
8 37 30 12 29 15 30 75 30 60 0 63 -1 75 -30 9 -21 19 -30 36 -30 23 0 22 4
-36 113 -32 61 -66 113 -74 115 -8 2 -20 -7 -27 -20z m71 -120 c0 -5 -20 -8
-45 -8 -25 0 -45 2 -45 5 0 2 10 25 22 50 l22 46 23 -43 c12 -24 22 -46 23
-50z"/>
<path d="M8850 205 c0 -108 1 -115 20 -115 17 0 20 7 20 50 l0 50 85 0 85 0 0
-50 c0 -43 3 -50 20 -50 19 0 20 7 20 115 0 107 -1 115 -19 115 -17 0 -20 -8
-23 -52 l-3 -53 -80 0 -80 0 -3 53 c-3 44 -6 52 -23 52 -18 0 -19 -8 -19 -115z"/>
<path d="M9480 205 c0 -102 2 -115 17 -115 10 0 59 42 110 92 l93 93 0 -93 c0
-85 1 -92 20 -92 19 0 20 7 20 115 0 103 -2 115 -17 115 -10 0 -60 -41 -110
-90 l-93 -89 0 89 c0 83 -1 90 -20 90 -19 0 -20 -7 -20 -115z"/>
<path d="M10190 313 c-54 -20 -68 -81 -25 -109 21 -14 23 -19 12 -28 -8 -6
-26 -28 -42 -49 l-27 -37 24 0 c17 0 33 13 56 45 26 36 37 45 62 45 29 0 30
-2 30 -45 0 -38 3 -45 20 -45 19 0 20 7 20 115 l0 115 -57 -1 c-32 0 -65 -3
-73 -6z m90 -63 l0 -50 -34 0 c-61 0 -88 53 -44 84 12 9 35 16 50 16 27 0 28
-2 28 -50z"/>
</g>
</svg>
