<?xml version="1.0" encoding="UTF-8"?>
<!DOCTYPE svg PUBLIC "-//W3C//DTD SVG 1.1//EN" "http://www.w3.org/Graphics/SVG/1.1/DTD/svg11.dtd">
<svg xmlns="http://www.w3.org/2000/svg" version="1.1" width="1098px" height="368px" style="shape-rendering:geometricPrecision; text-rendering:geometricPrecision; image-rendering:optimizeQuality; fill-rule:evenodd; clip-rule:evenodd" xmlns:xlink="http://www.w3.org/1999/xlink">
<g><path style="opacity:0.933" fill="#1d1d1a" d="M 332.5,-0.5 C 333.833,-0.5 335.167,-0.5 336.5,-0.5C 339.968,1.40454 343.302,3.57121 346.5,6C 345.345,10.4304 344.678,14.9304 344.5,19.5C 402.883,31.2433 461.216,43.2433 519.5,55.5C 517.373,64.5499 515.039,73.5499 512.5,82.5C 507.184,81.7035 501.851,81.0369 496.5,80.5C 496.5,81.5 496.5,82.5 496.5,83.5C 499.127,84.0916 501.794,84.4249 504.5,84.5C 504.5,88.1667 504.5,91.8333 504.5,95.5C 502.473,95.3379 500.473,95.5045 498.5,96C 501.289,106.937 503.955,117.937 506.5,129C 508.317,147.396 510.817,165.896 514,184.5C 520.349,184.616 526.849,184.616 533.5,184.5C 533.424,194.035 534.091,203.369 535.5,212.5C 534.89,213.391 534.557,214.391 534.5,215.5C 529.67,220.497 527.003,226.497 526.5,233.5C 525.662,233.158 525.328,232.492 525.5,231.5C 525.631,230.761 525.464,230.094 525,229.5C 523.114,233.958 520.281,237.625 516.5,240.5C 516.5,240.167 516.5,239.833 516.5,239.5C 522.715,231.666 525.715,222.666 525.5,212.5C 524.167,212.5 522.833,212.5 521.5,212.5C 520.167,212.5 518.833,212.5 517.5,212.5C 520.287,211.523 523.287,211.19 526.5,211.5C 526.334,215.846 526.501,220.179 527,224.5C 528.271,221.567 529.938,218.901 532,216.5C 532.5,206.172 532.666,195.839 532.5,185.5C 517.48,185.923 502.48,186.756 487.5,188C 483.667,192.5 479.833,197 476,201.5C 475.169,208.524 475.336,215.524 476.5,222.5C 479.708,221.198 483.041,220.531 486.5,220.5C 468.499,224.437 460.166,235.771 461.5,254.5C 461.5,255.167 461.167,255.5 460.5,255.5C 460.128,248.699 460.794,242.033 462.5,235.5C 461.5,235.5 460.5,235.5 459.5,235.5C 459.356,244.798 455.356,251.798 447.5,256.5C 443.639,257.541 443.639,258.541 447.5,259.5C 440.832,260.5 434.165,261.5 427.5,262.5C 427.167,261.833 426.833,261.167 426.5,260.5C 429.385,260.806 432.052,260.473 434.5,259.5C 445.333,258.158 452.833,252.491 457,242.5C 458.785,237.314 459.618,231.98 459.5,226.5C 447.942,225.619 438.609,229.619 431.5,238.5C 430.833,238.5 430.167,238.5 429.5,238.5C 427.219,238.077 425.552,238.744 424.5,240.5C 423.833,238.167 423.167,235.833 422.5,233.5C 407.131,233.333 396.798,240.333 391.5,254.5C 391.5,253.167 391.5,251.833 391.5,250.5C 393.059,248.392 394.392,246.059 395.5,243.5C 394.311,242.571 392.978,242.238 391.5,242.5C 391.5,244.167 391.5,245.833 391.5,247.5C 390.833,245.5 390.167,243.5 389.5,241.5C 381.462,241.009 374.129,243.009 367.5,247.5C 367.38,246.414 366.713,245.747 365.5,245.5C 364.584,245.543 363.917,245.876 363.5,246.5C 361.208,246.244 359.041,246.577 357,247.5C 356.824,251.688 356.324,255.688 355.5,259.5C 355.5,258.167 355.5,256.833 355.5,255.5C 355.5,252.833 355.5,250.167 355.5,247.5C 348.497,247.252 341.83,248.585 335.5,251.5C 335.611,250.883 335.944,250.383 336.5,250C 335.251,249.26 334.251,249.427 333.5,250.5C 226.341,264.835 120.007,283.669 14.5,307C 13.5399,310.73 13.2065,314.563 13.5,318.5C 69.3318,319.665 125.332,319.832 181.5,319C 182.056,318.617 182.389,318.117 182.5,317.5C 186.193,316.94 189.86,316.273 193.5,315.5C 195.153,315.66 196.486,316.326 197.5,317.5C 219.121,318.501 242.121,318.834 266.5,318.5C 278.821,319.452 291.154,319.619 303.5,319C 301.456,318.502 300.122,317.335 299.5,315.5C 305.412,319.197 311.746,320.197 318.5,318.5C 555.961,319.832 793.294,319.832 1030.5,318.5C 1031.5,297.006 1031.83,275.34 1031.5,253.5C 1019.65,253.828 1007.99,253.495 996.5,252.5C 996.5,249.167 996.5,245.833 996.5,242.5C 996.833,242.5 997.167,242.5 997.5,242.5C 997.5,244.5 997.5,246.5 997.5,248.5C 997.5,249.833 997.5,251.167 997.5,252.5C 1004.69,252.825 1011.69,252.491 1018.5,251.5C 1022.5,251.5 1026.5,251.5 1030.5,251.5C 1030.5,240.167 1030.5,228.833 1030.5,217.5C 1029.5,217.5 1028.5,217.5 1027.5,217.5C 1027.67,216.508 1027.34,215.842 1026.5,215.5C 1025.5,215.167 1024.83,214.5 1024.5,213.5C 1024.5,212.833 1024.5,212.167 1024.5,211.5C 1025.63,212.122 1026.63,212.955 1027.5,214C 1050.84,214.722 1074.18,214.555 1097.5,213.5C 1097.5,214.833 1097.5,216.167 1097.5,217.5C 1076.17,217.5 1054.83,217.5 1033.5,217.5C 1033.5,228.833 1033.5,240.167 1033.5,251.5C 1045.8,250.582 1058.14,250.248 1070.5,250.5C 1070.5,251.5 1070.5,252.5 1070.5,253.5C 1058.16,253.734 1045.83,254.067 1033.5,254.5C 1033.5,276.833 1033.5,299.167 1033.5,321.5C 692.5,321.5 351.5,321.5 10.5,321.5C 10.1718,316.125 10.5052,310.792 11.5,305.5C 110.014,282.997 209.347,264.997 309.5,251.5C 310.091,226.105 309.424,200.772 307.5,175.5C 309.242,169.932 309.742,164.265 309,158.5C 308.411,160.863 306.911,161.863 304.5,161.5C 304.576,157.616 303.91,153.95 302.5,150.5C 304.167,150.5 305.833,150.5 307.5,150.5C 307.769,116.158 307.436,81.8251 306.5,47.5C 306.225,26.4918 314.892,10.4918 332.5,-0.5 Z M 335.5,48.5 C 352.143,51.962 368.81,55.2954 385.5,58.5C 378.413,120.194 371.08,181.86 363.5,243.5C 346.193,245.997 328.86,248.33 311.5,250.5C 310.91,225.438 311.577,200.438 313.5,175.5C 311.758,169.932 311.258,164.265 312,158.5C 312.589,160.863 314.089,161.863 316.5,161.5C 316.39,157.39 317.39,153.723 319.5,150.5C 317.833,150.5 316.167,150.5 314.5,150.5C 314.333,131.83 314.5,113.164 315,94.5C 318.08,93.8005 320.414,92.1339 322,89.5C 327.01,75.9716 331.51,62.305 335.5,48.5 Z M 388.5,60.5 C 391.86,60.6159 395.193,60.9492 398.5,61.5C 398.5,88.1667 398.5,114.833 398.5,141.5C 392.167,141.5 385.833,141.5 379.5,141.5C 382.418,114.491 385.418,87.4906 388.5,60.5 Z M 421.5,65.5 C 444.068,69.4129 466.401,74.0795 488.5,79.5C 488.135,80.9019 487.301,81.9019 486,82.5C 483.901,81.7135 481.734,81.3801 479.5,81.5C 482.955,100.187 486.455,118.854 490,137.5C 491.765,153.815 493.265,170.149 494.5,186.5C 491.813,186.336 489.146,186.503 486.5,187C 483.016,191.451 479.183,195.618 475,199.5C 474.435,207.509 473.769,215.509 473,223.5C 469.5,225.667 466.667,228.5 464.5,232C 463.207,232.49 461.873,232.657 460.5,232.5C 460.5,229.833 460.5,227.167 460.5,224.5C 449.215,223.76 439.548,227.26 431.5,235C 429.26,235.977 426.927,236.477 424.5,236.5C 424.5,234.833 424.5,233.167 424.5,231.5C 423.5,231.5 422.5,231.5 421.5,231.5C 421.5,176.167 421.5,120.833 421.5,65.5 Z M 486.5,94.5 C 489.545,94.3418 492.379,95.0085 495,96.5C 497.233,108.432 500.233,120.099 504,131.5C 506.62,149.218 509.453,166.885 512.5,184.5C 507.208,185.495 501.875,185.828 496.5,185.5C 494.023,155.061 490.69,124.728 486.5,94.5 Z M 378.5,144.5 C 385.167,144.5 391.833,144.5 398.5,144.5C 398.5,147.167 398.5,149.833 398.5,152.5C 391.5,152.5 384.5,152.5 377.5,152.5C 378.092,149.873 378.425,147.206 378.5,144.5 Z M 377.5,154.5 C 384.5,154.5 391.5,154.5 398.5,154.5C 398.5,170.833 398.5,187.167 398.5,203.5C 389.467,203.284 380.467,203.617 371.5,204.5C 373.172,187.788 375.172,171.122 377.5,154.5 Z M 381.5,205.5 C 387.167,205.5 392.833,205.5 398.5,205.5C 398.5,216.833 398.5,228.167 398.5,239.5C 392.919,239.819 387.252,239.986 381.5,240C 376.899,241.479 372.232,242.646 367.5,243.5C 367.167,242.667 366.833,241.833 366.5,241C 368.163,229.533 369.496,218.033 370.5,206.5C 374.371,206.815 378.038,206.482 381.5,205.5 Z M 982.5,211.5 C 981.341,213.377 979.674,213.877 977.5,213C 979.154,212.392 980.821,211.892 982.5,211.5 Z M 623.5,215.5 C 624.782,216.708 624.782,218.042 623.5,219.5C 622.708,218.3 622.708,216.967 623.5,215.5 Z"/></g>
<g><path style="opacity:0.958" fill="#1c1d1a" d="M 224.5,34.5 C 230.833,34.5 237.167,34.5 243.5,34.5C 243.5,38.8333 243.5,43.1667 243.5,47.5C 261.185,45.7569 274.019,52.7569 282,68.5C 289.241,87.9748 285.408,104.808 270.5,119C 262.272,124.141 253.272,126.641 243.5,126.5C 243.5,131.833 243.5,137.167 243.5,142.5C 237.167,142.5 230.833,142.5 224.5,142.5C 224.5,137.167 224.5,131.833 224.5,126.5C 197.954,126.287 183.62,112.953 181.5,86.5C 183.504,59.8266 197.838,46.8266 224.5,47.5C 224.5,43.1667 224.5,38.8333 224.5,34.5 Z M 216.5,65.5 C 219.167,65.5 221.833,65.5 224.5,65.5C 224.5,79.8333 224.5,94.1667 224.5,108.5C 206.34,106.542 199.173,96.5418 203,78.5C 205.442,71.8884 209.942,67.555 216.5,65.5 Z M 243.5,65.5 C 257.341,65.6744 264.675,72.6744 265.5,86.5C 264.497,100.17 257.163,107.503 243.5,108.5C 243.5,94.1667 243.5,79.8333 243.5,65.5 Z"/></g>
<g><path style="opacity:0.947" fill="#1c1d1a" d="M 984.5,34.5 C 993.226,34.1614 1001.89,34.6614 1010.5,36C 1027.28,41.7236 1033.45,53.2236 1029,70.5C 1024.88,78.6152 1018.38,83.7819 1009.5,86C 1029.48,89.7829 1036.98,101.616 1032,121.5C 1026.07,134.397 1015.91,141.231 1001.5,142C 990.404,142.895 979.404,142.229 968.5,140C 965.097,139.422 961.93,138.255 959,136.5C 958.5,130.175 958.334,123.842 958.5,117.5C 968.269,121.421 978.435,123.755 989,124.5C 996.908,124.613 1003.91,122.28 1010,117.5C 1014.1,110.521 1012.94,104.687 1006.5,100C 995.883,96.0079 984.883,94.5079 973.5,95.5C 973.5,89.5 973.5,83.5 973.5,77.5C 984.499,78.1256 995.166,76.6256 1005.5,73C 1009.71,68.7998 1010.55,63.9664 1008,58.5C 1003.87,54.4254 998.873,52.4254 993,52.5C 983.737,53.3839 975.237,56.3839 967.5,61.5C 963.435,56.6595 960.602,51.3261 959,45.5C 966.691,39.7759 975.191,36.1092 984.5,34.5 Z"/></g>
<g><path style="opacity:0.945" fill="#1c1d1a" d="M 11.5,35.5 C 18.8333,35.5 26.1667,35.5 33.5,35.5C 33.5,49.1667 33.5,62.8333 33.5,76.5C 45.5,76.5 57.5,76.5 69.5,76.5C 69.5,62.8333 69.5,49.1667 69.5,35.5C 76.5,35.5 83.5,35.5 90.5,35.5C 90.5,70.5 90.5,105.5 90.5,140.5C 83.5,140.5 76.5,140.5 69.5,140.5C 69.5,125.833 69.5,111.167 69.5,96.5C 57.5,96.5 45.5,96.5 33.5,96.5C 33.5,111.167 33.5,125.833 33.5,140.5C 26.1667,140.5 18.8333,140.5 11.5,140.5C 11.5,105.5 11.5,70.5 11.5,35.5 Z"/></g>
<g><path style="opacity:0.946" fill="#1c1d1a" d="M 113.5,35.5 C 132.167,35.5 150.833,35.5 169.5,35.5C 169.5,41.8333 169.5,48.1667 169.5,54.5C 158.167,54.5 146.833,54.5 135.5,54.5C 135.5,61.8333 135.5,69.1667 135.5,76.5C 146.167,76.5 156.833,76.5 167.5,76.5C 167.5,82.8333 167.5,89.1667 167.5,95.5C 156.833,95.5 146.167,95.5 135.5,95.5C 135.5,104.167 135.5,112.833 135.5,121.5C 146.833,121.5 158.167,121.5 169.5,121.5C 169.5,127.833 169.5,134.167 169.5,140.5C 150.833,140.5 132.167,140.5 113.5,140.5C 113.5,105.5 113.5,70.5 113.5,35.5 Z"/></g>
<g><path style="opacity:0.946" fill="#1c1d1a" d="M 533.5,35.5 C 540.833,35.5 548.167,35.5 555.5,35.5C 555.5,48.8333 555.5,62.1667 555.5,75.5C 568.009,74.4484 579.676,76.9484 590.5,83C 596.152,87.1386 599.652,92.6386 601,99.5C 603.576,111.62 601.076,122.453 593.5,132C 589.391,135.388 584.725,137.721 579.5,139C 564.225,140.435 548.891,140.935 533.5,140.5C 533.5,105.5 533.5,70.5 533.5,35.5 Z M 555.5,94.5 C 562.408,94.4147 569.075,95.5814 575.5,98C 581.779,104.315 582.113,110.981 576.5,118C 569.877,121.144 562.877,122.311 555.5,121.5C 555.5,112.5 555.5,103.5 555.5,94.5 Z"/></g>
<g><path style="opacity:0.943" fill="#1c1d1a" d="M 653.5,35.5 C 660.167,35.5 666.833,35.5 673.5,35.5C 673.4,61.1748 673.233,86.8414 673,112.5C 687,87.1667 701,61.8333 715,36.5C 723.415,35.5168 731.915,35.1834 740.5,35.5C 740.5,70.5 740.5,105.5 740.5,140.5C 734.167,140.5 727.833,140.5 721.5,140.5C 721.433,114.815 721.6,89.1484 722,63.5C 708,88.8333 694,114.167 680,139.5C 671.251,140.484 662.418,140.817 653.5,140.5C 653.5,105.5 653.5,70.5 653.5,35.5 Z"/></g>
<g><path style="opacity:0.93" fill="#1c1d1a" d="M 797.5,35.5 C 817.833,35.5 838.167,35.5 858.5,35.5C 858.5,42.1667 858.5,48.8333 858.5,55.5C 845.5,55.5 832.5,55.5 819.5,55.5C 819.5,83.8333 819.5,112.167 819.5,140.5C 812.167,140.5 804.833,140.5 797.5,140.5C 797.5,105.5 797.5,70.5 797.5,35.5 Z"/></g>
<g><path style="opacity:0.956" fill="#1c1d1a" d="M 893.5,35.5 C 902.167,35.5 910.833,35.5 919.5,35.5C 930.702,70.4389 941.702,105.439 952.5,140.5C 944.833,140.5 937.167,140.5 929.5,140.5C 927.704,132.445 925.704,124.445 923.5,116.5C 912.147,116.168 900.814,116.501 889.5,117.5C 887.395,125.093 885.061,132.593 882.5,140C 875.174,140.5 867.841,140.666 860.5,140.5C 871.037,105.35 882.037,70.3502 893.5,35.5 Z M 905.5,56.5 C 906.966,57.347 907.8,58.6803 908,60.5C 911.481,72.4398 914.648,84.4398 917.5,96.5C 910.167,96.5 902.833,96.5 895.5,96.5C 898.833,83.1667 902.167,69.8333 905.5,56.5 Z"/></g>
<g><path style="opacity:0.709" fill="#25231a" d="M 1024.5,211.5 C 1024.5,212.167 1024.5,212.833 1024.5,213.5C 1008.51,200.433 993.842,201.766 980.5,217.5C 976.119,217.372 971.785,217.705 967.5,218.5C 966.5,218.5 965.5,218.5 964.5,218.5C 964.5,222.167 964.5,225.833 964.5,229.5C 964.167,229.5 963.833,229.5 963.5,229.5C 963.5,225.5 963.5,221.5 963.5,217.5C 962.5,217.5 961.5,217.5 960.5,217.5C 963.641,216.679 966.975,216.179 970.5,216C 967.456,215.637 964.456,215.137 961.5,214.5C 941.193,213.001 920.86,212.001 900.5,211.5C 892.167,210.833 883.833,210.167 875.5,209.5C 895.066,206.592 903.733,195.258 901.5,175.5C 885.153,175.018 874.986,182.684 871,198.5C 870.501,202.152 870.335,205.818 870.5,209.5C 871.5,210.167 872.5,210.833 873.5,211.5C 845.058,210.874 816.724,212.041 788.5,215C 792.311,216.739 796.311,217.572 800.5,217.5C 802.415,217.216 804.081,217.549 805.5,218.5C 803.143,218.337 800.81,218.503 798.5,219C 802.798,221.459 805.798,224.959 807.5,229.5C 808.234,230.708 808.567,232.041 808.5,233.5C 802.408,220.608 792.074,214.608 777.5,215.5C 777.5,218.167 777.5,220.833 777.5,223.5C 777.5,224.167 777.167,224.5 776.5,224.5C 776.5,223.167 776.5,221.833 776.5,220.5C 776.167,219.833 775.833,219.167 775.5,218.5C 776.404,217.791 776.737,216.791 776.5,215.5C 772.833,215.5 769.167,215.5 765.5,215.5C 762.583,215.365 759.916,216.032 757.5,217.5C 756.5,217.5 755.5,217.5 754.5,217.5C 752.393,216.532 750.059,216.198 747.5,216.5C 747.194,219.385 747.527,222.052 748.5,224.5C 748.5,225.833 748.5,227.167 748.5,228.5C 748.672,229.492 748.338,230.158 747.5,230.5C 747.167,227.833 746.833,225.167 746.5,222.5C 742.833,222.5 739.167,222.5 735.5,222.5C 734.833,222.5 734.5,222.167 734.5,221.5C 738.5,221.167 742.5,220.833 746.5,220.5C 746.5,219.5 746.5,218.5 746.5,217.5C 736.175,218.287 725.842,218.954 715.5,219.5C 717.969,218.683 720.635,218.183 723.5,218C 714.393,217.207 705.393,217.874 696.5,220C 702.329,219.598 707.996,219.765 713.5,220.5C 701.499,221.5 689.499,222.5 677.5,223.5C 677.5,223.167 677.5,222.833 677.5,222.5C 680.577,222.821 682.91,221.821 684.5,219.5C 682.5,218.833 680.5,218.167 678.5,217.5C 685.356,209.088 687.856,199.421 686,188.5C 685.481,187.484 684.647,186.818 683.5,186.5C 663.164,191.184 654.831,203.85 658.5,224.5C 658.167,224.5 657.833,224.5 657.5,224.5C 657.5,223.167 657.5,221.833 657.5,220.5C 653.486,220.334 649.486,220.501 645.5,221C 639.728,224.89 633.395,227.056 626.5,227.5C 626.714,225.856 626.38,224.356 625.5,223C 623.527,222.505 621.527,222.338 619.5,222.5C 619.167,222.5 618.833,222.5 618.5,222.5C 623.247,214.158 624.747,205.158 623,195.5C 613.173,195.413 605.173,199.413 599,207.5C 596.715,211.187 595.548,215.187 595.5,219.5C 594.566,220.568 594.232,221.901 594.5,223.5C 592.585,223.216 590.919,223.549 589.5,224.5C 586.48,227.516 583.146,230.183 579.5,232.5C 579.167,232.5 578.833,232.5 578.5,232.5C 589.291,224.201 592.958,213.368 589.5,200C 574.101,200.57 565.101,208.403 562.5,223.5C 561.833,224.5 561.167,225.5 560.5,226.5C 558.446,226.365 556.779,227.032 555.5,228.5C 555.5,227.833 555.167,227.5 554.5,227.5C 557.124,221.49 558.457,215.157 558.5,208.5C 549.547,207.737 541.547,210.07 534.5,215.5C 534.557,214.391 534.89,213.391 535.5,212.5C 542.811,208.006 550.811,206.006 559.5,206.5C 559.338,212.298 559.338,217.964 559.5,223.5C 563.553,206.795 574.22,198.128 591.5,197.5C 593.103,205.263 592.769,212.93 590.5,220.5C 591.325,221.386 592.325,221.719 593.5,221.5C 595.665,203.34 605.999,193.673 624.5,192.5C 624.917,196.835 625.417,201.168 626,205.5C 631.617,192.731 641.45,186.065 655.5,185.5C 657.483,195.123 656.65,204.457 653,213.5C 651.954,215.09 650.787,216.59 649.5,218C 651.751,217.793 654.085,217.627 656.5,217.5C 656.766,197.23 667.099,186.23 687.5,184.5C 687.564,188.22 688.064,191.886 689,195.5C 696.891,186.921 706.724,182.921 718.5,183.5C 718.335,186.85 718.502,190.183 719,193.5C 723.006,185.404 729.506,180.571 738.5,179C 742.491,178.358 746.491,177.858 750.5,177.5C 750.334,181.514 750.501,185.514 751,189.5C 758.891,180.921 768.724,176.921 780.5,177.5C 780.334,181.514 780.501,185.514 781,189.5C 788.399,178.886 798.566,174.386 811.5,176C 812.288,179.076 812.788,182.242 813,185.5C 820.463,177.73 829.63,173.73 840.5,173.5C 841.552,175.542 842.219,177.708 842.5,180C 841.668,182.478 841.501,184.978 842,187.5C 849.411,177.047 859.578,172.381 872.5,173.5C 872.334,178.179 872.501,182.845 873,187.5C 880.411,177.047 890.578,172.381 903.5,173.5C 903.334,177.514 903.501,181.514 904,185.5C 911.591,176.456 921.424,172.123 933.5,172.5C 935.65,185.079 932.316,195.913 923.5,205C 920.833,206.333 918.167,207.667 915.5,209C 920.754,210.271 926.087,210.771 931.5,210.5C 930.464,186.202 942.131,173.868 966.5,173.5C 966.471,179.545 966.304,185.545 966,191.5C 971.279,182.766 979.112,177.933 989.5,177C 1016.17,176.389 1042.83,175.889 1069.5,175.5C 1069.5,176.5 1069.5,177.5 1069.5,178.5C 1045.51,179.261 1021.51,179.594 997.5,179.5C 998.373,189.48 995.707,198.313 989.5,206C 1002.29,200.523 1013.95,202.356 1024.5,211.5 Z M 868.5,197.5 C 869.032,201.307 869.032,205.307 868.5,209.5C 864.486,209.666 860.486,209.499 856.5,209C 861.683,206.316 865.683,202.482 868.5,197.5 Z M 962.5,197.5 C 962.781,202.291 962.781,207.291 962.5,212.5C 956.79,212.529 951.123,212.029 945.5,211C 953.214,208.841 958.88,204.341 962.5,197.5 Z M 837.5,198.5 C 837.765,202.038 838.098,205.705 838.5,209.5C 833.533,210.662 828.533,210.829 823.5,210C 829.858,208.134 834.525,204.301 837.5,198.5 Z M 898.5,198.5 C 899.482,201.962 899.815,205.629 899.5,209.5C 895.154,209.666 890.821,209.499 886.5,209C 891.95,207.043 895.95,203.543 898.5,198.5 Z M 776.5,201.5 C 777.483,205.298 777.817,209.298 777.5,213.5C 772.821,213.666 768.155,213.499 763.5,213C 769.288,210.707 773.621,206.873 776.5,201.5 Z M 806.5,201.5 C 807.479,204.625 807.813,207.958 807.5,211.5C 801.799,211.616 796.132,211.782 790.5,212C 797.362,210.741 802.695,207.241 806.5,201.5 Z M 745.5,202.5 C 745.772,206.277 745.772,210.277 745.5,214.5C 740.821,214.666 736.155,214.499 731.5,214C 737.858,212.134 742.525,208.301 745.5,202.5 Z M 714.5,207.5 C 715.473,209.948 715.806,212.615 715.5,215.5C 713.143,215.663 710.81,215.497 708.5,215C 711.118,212.894 713.118,210.394 714.5,207.5 Z M 982.5,211.5 C 980.821,211.892 979.154,212.392 977.5,213C 979.674,213.877 981.341,213.377 982.5,211.5 Z M 623.5,215.5 C 622.708,216.967 622.708,218.3 623.5,219.5C 624.782,218.042 624.782,216.708 623.5,215.5 Z"/></g>
<g><path style="opacity:1" fill="#fadc00" d="M 743.5,179.5 C 745.167,179.5 746.833,179.5 748.5,179.5C 749.82,201.512 739.486,213.179 717.5,214.5C 715.595,194.763 724.262,183.096 743.5,179.5 Z"/></g>
<g><path style="opacity:1" fill="#fbdc00" d="M 752.5,213.5 C 751.167,213.5 749.833,213.5 748.5,213.5C 748.5,209.833 748.5,206.167 748.5,202.5C 752.042,186.701 762.042,179.034 778.5,179.5C 780.69,199.294 772.023,210.628 752.5,213.5 Z"/></g>
<g><path style="opacity:1" fill="#fadc00" d="M 987.5,178.5 C 990.167,178.5 992.833,178.5 995.5,178.5C 996.814,200.518 986.481,212.184 964.5,213.5C 962.463,195.197 970.13,183.53 987.5,178.5 Z"/></g>
<g><path style="opacity:1" fill="#9c8b0e" d="M 834.5,176.5 C 836.265,175.539 838.265,175.205 840.5,175.5C 840.813,179.042 840.479,182.375 839.5,185.5C 839.5,182.5 839.5,179.5 839.5,176.5C 837.833,176.5 836.167,176.5 834.5,176.5 Z"/></g>
<g><path style="opacity:1" fill="#a18f0f" d="M 804.5,177.5 C 806.265,176.539 808.265,176.205 810.5,176.5C 810.817,180.702 810.483,184.702 809.5,188.5C 809.5,184.833 809.5,181.167 809.5,177.5C 807.833,177.5 806.167,177.5 804.5,177.5 Z"/></g>
<g><path style="opacity:1" fill="#fbdd00" d="M 804.5,177.5 C 806.167,177.5 807.833,177.5 809.5,177.5C 809.5,181.167 809.5,184.833 809.5,188.5C 805.95,204.302 795.95,211.969 779.5,211.5C 777.187,192.167 785.52,180.834 804.5,177.5 Z"/></g>
<g><path style="opacity:1" fill="#f9da01" d="M 960.5,175.5 C 961.833,175.5 963.167,175.5 964.5,175.5C 966.482,198.181 956.148,209.847 933.5,210.5C 931.727,190.333 940.727,178.666 960.5,175.5 Z"/></g>
<g><path style="opacity:1" fill="#fadc00" d="M 834.5,176.5 C 836.167,176.5 837.833,176.5 839.5,176.5C 839.5,179.5 839.5,182.5 839.5,185.5C 836.715,202.935 826.381,211.268 808.5,210.5C 807.095,191.261 815.762,179.927 834.5,176.5 Z"/></g>
<g><path style="opacity:1" fill="#f8da01" d="M 925.5,175.5 C 927.5,175.5 929.5,175.5 931.5,175.5C 931.5,178.167 931.5,180.833 931.5,183.5C 931.004,196.166 924.671,204.333 912.5,208C 908.56,209.015 904.56,209.515 900.5,209.5C 899.02,190.68 907.354,179.346 925.5,175.5 Z"/></g>
<g><path style="opacity:1" fill="#fadb01" d="M 875.5,209.5 C 873.833,209.5 872.167,209.5 870.5,209.5C 870.335,205.818 870.501,202.152 871,198.5C 874.986,182.684 885.153,175.018 901.5,175.5C 903.733,195.258 895.066,206.592 875.5,209.5 Z"/></g>
<g><path style="opacity:1" fill="#7b6e12" d="M 866.5,175.5 C 867.919,174.549 869.585,174.216 871.5,174.5C 871.81,177.713 871.477,180.713 870.5,183.5C 870.5,180.833 870.5,178.167 870.5,175.5C 869.167,175.5 867.833,175.5 866.5,175.5 Z"/></g>
<g><path style="opacity:1" fill="#fbdc00" d="M 866.5,175.5 C 867.833,175.5 869.167,175.5 870.5,175.5C 870.5,178.167 870.5,180.833 870.5,183.5C 869.094,198.239 861.094,206.906 846.5,209.5C 844.5,209.5 842.5,209.5 840.5,209.5C 840.5,206.167 840.5,202.833 840.5,199.5C 843.042,184.96 851.709,176.96 866.5,175.5 Z"/></g>
<g><path style="opacity:1" fill="#a28f0d" d="M 925.5,175.5 C 927.607,174.532 929.941,174.198 932.5,174.5C 932.81,177.713 932.477,180.713 931.5,183.5C 931.5,180.833 931.5,178.167 931.5,175.5C 929.5,175.5 927.5,175.5 925.5,175.5 Z"/></g>
<g><path style="opacity:1" fill="#fbdd00" d="M 690.5,219.5 C 689.167,219.5 687.833,219.5 686.5,219.5C 686.5,215.833 686.5,212.167 686.5,208.5C 690.064,192.693 700.064,185.027 716.5,185.5C 718.69,205.294 710.023,216.628 690.5,219.5 Z"/></g>
<g><path style="opacity:0.745" fill="#25231b" d="M 11.5,185.5 C 93.2602,184.794 172.927,197.294 250.5,223C 265.624,228.229 279.957,235.062 293.5,243.5C 266.906,239.47 239.906,236.303 212.5,234C 175.834,232.009 139.167,232.009 102.5,234C 72.1109,236.323 41.7776,239.157 11.5,242.5C 11.5,223.5 11.5,204.5 11.5,185.5 Z"/></g>
<g><path style="opacity:1" fill="#000000" d="M 517.5,212.5 C 507.485,213.251 499.985,217.918 495,226.5C 494.503,224.19 494.337,221.857 494.5,219.5C 491.615,219.194 488.948,219.527 486.5,220.5C 483.041,220.531 479.708,221.198 476.5,222.5C 475.336,215.524 475.169,208.524 476,201.5C 479.833,197 483.667,192.5 487.5,188C 502.48,186.756 517.48,185.923 532.5,185.5C 532.666,195.839 532.5,206.172 532,216.5C 529.938,218.901 528.271,221.567 527,224.5C 526.501,220.179 526.334,215.846 526.5,211.5C 523.287,211.19 520.287,211.523 517.5,212.5 Z"/></g>
<g><path style="opacity:1" fill="#7e7011" d="M 33.5,187.5 C 26.8333,187.5 20.1667,187.5 13.5,187.5C 12.847,205.532 13.5137,223.198 15.5,240.5C 14.791,241.404 13.791,241.737 12.5,241.5C 12.5,223.167 12.5,204.833 12.5,186.5C 19.6866,186.175 26.6866,186.509 33.5,187.5 Z"/></g>
<g><path style="opacity:1" fill="#fcde00" d="M 33.5,187.5 C 105.623,189.093 175.957,200.927 244.5,223C 258.079,228.082 271.412,233.749 284.5,240C 264.895,237.605 245.228,235.272 225.5,233C 184.52,230.151 143.52,229.817 102.5,232C 73.4033,234.043 44.4033,236.876 15.5,240.5C 13.5137,223.198 12.847,205.532 13.5,187.5C 20.1667,187.5 26.8333,187.5 33.5,187.5 Z"/></g>
<g><path style="opacity:1" fill="#f9db01" d="M 648.5,187.5 C 650.467,187.261 652.301,187.594 654,188.5C 657.861,210.154 649.028,222.488 627.5,225.5C 623.583,206.658 630.583,193.991 648.5,187.5 Z"/></g>
<g><path style="opacity:1" fill="#fadb01" d="M 678.5,217.5 C 672.479,221.502 665.812,223.836 658.5,224.5C 654.831,203.85 663.164,191.184 683.5,186.5C 684.647,186.818 685.481,187.484 686,188.5C 687.856,199.421 685.356,209.088 678.5,217.5 Z"/></g>
<g><path style="opacity:1" fill="#f9db01" d="M 618.5,222.5 C 611.917,228.291 604.25,231.624 595.5,232.5C 595.5,228.167 595.5,223.833 595.5,219.5C 595.548,215.187 596.715,211.187 599,207.5C 605.173,199.413 613.173,195.413 623,195.5C 624.747,205.158 623.247,214.158 618.5,222.5 Z"/></g>
<g><path style="opacity:1" fill="#fadb01" d="M 578.5,232.5 C 573.358,234.785 568.025,236.452 562.5,237.5C 562.5,235.833 562.5,234.167 562.5,232.5C 562.5,229.5 562.5,226.5 562.5,223.5C 565.101,208.403 574.101,200.57 589.5,200C 592.958,213.368 589.291,224.201 578.5,232.5 Z"/></g>
<g><path style="opacity:1" fill="#f9db01" d="M 1024.5,213.5 C 1024.83,214.5 1025.5,215.167 1026.5,215.5C 1018.7,226.886 1008.03,230.72 994.5,227C 989.405,224.394 984.738,221.228 980.5,217.5C 993.842,201.766 1008.51,200.433 1024.5,213.5 Z"/></g>
<g><path style="opacity:1" fill="#a9960c" d="M 748.5,202.5 C 748.5,206.167 748.5,209.833 748.5,213.5C 749.833,213.5 751.167,213.5 752.5,213.5C 751.081,214.451 749.415,214.784 747.5,214.5C 747.183,210.298 747.517,206.298 748.5,202.5 Z"/></g>
<g><path style="opacity:1" fill="#f8d901" d="M 554.5,227.5 C 550.849,234.35 545.182,238.85 537.5,241C 533.582,242.156 529.582,242.656 525.5,242.5C 525.508,239.455 525.841,236.455 526.5,233.5C 527.003,226.497 529.67,220.497 534.5,215.5C 541.547,210.07 549.547,207.737 558.5,208.5C 558.457,215.157 557.124,221.49 554.5,227.5 Z"/></g>
<g><path style="opacity:1" fill="#8c7d10" d="M 840.5,199.5 C 840.5,202.833 840.5,206.167 840.5,209.5C 842.5,209.5 844.5,209.5 846.5,209.5C 844.393,210.468 842.059,210.802 839.5,210.5C 839.185,206.629 839.518,202.962 840.5,199.5 Z"/></g>
<g><path style="opacity:1" fill="#504815" d="M 870.5,209.5 C 872.167,209.5 873.833,209.5 875.5,209.5C 883.833,210.167 892.167,210.833 900.5,211.5C 891.5,211.5 882.5,211.5 873.5,211.5C 872.5,210.833 871.5,210.167 870.5,209.5 Z"/></g>
<g><path style="opacity:1" fill="#ecd004" d="M 873.5,211.5 C 882.5,211.5 891.5,211.5 900.5,211.5C 920.86,212.001 941.193,213.001 961.5,214.5C 959.052,215.473 956.385,215.806 953.5,215.5C 949.167,215.5 944.833,215.5 940.5,215.5C 920.323,213.941 899.989,213.608 879.5,214.5C 862.82,215.298 846.153,215.631 829.5,215.5C 825.833,215.5 822.167,215.5 818.5,215.5C 812.209,214.25 806.209,214.916 800.5,217.5C 796.311,217.572 792.311,216.739 788.5,215C 816.724,212.041 845.058,210.874 873.5,211.5 Z"/></g>
<g><path style="opacity:1" fill="#a8950d" d="M 686.5,208.5 C 686.5,212.167 686.5,215.833 686.5,219.5C 687.833,219.5 689.167,219.5 690.5,219.5C 689.081,220.451 687.415,220.784 685.5,220.5C 685.183,216.298 685.517,212.298 686.5,208.5 Z"/></g>
<g><path style="opacity:0.688" fill="#21201a" d="M 200.5,193.5 C 223.663,192.337 246.996,192.17 270.5,193C 286.169,206.493 298.336,222.659 307,241.5C 307.667,242.5 307.667,243.5 307,244.5C 283.638,227.233 258.138,213.733 230.5,204C 220.509,200.392 210.509,196.892 200.5,193.5 Z"/></g>
<g><path style="opacity:1" fill="#f9db01" d="M 214.5,196.5 C 232.659,195.503 250.992,195.17 269.5,195.5C 276.439,200.605 282.606,206.605 288,213.5C 293.23,221.069 298.063,228.902 302.5,237C 302.167,237.167 301.833,237.333 301.5,237.5C 274.444,219.809 245.444,206.143 214.5,196.5 Z"/></g>
<g><path style="opacity:1" fill="#c3ac07" d="M 269.5,195.5 C 250.992,195.17 232.659,195.503 214.5,196.5C 213.234,195.91 211.901,195.41 210.5,195C 230.338,194.171 250.004,194.338 269.5,195.5 Z"/></g>
<g><path style="opacity:1" fill="#f9db01" d="M 521.5,212.5 C 522.833,212.5 524.167,212.5 525.5,212.5C 525.715,222.666 522.715,231.666 516.5,239.5C 509.765,244.718 502.098,247.052 493.5,246.5C 492.348,226.333 501.682,214.999 521.5,212.5 Z"/></g>
<g><path style="opacity:1" fill="#403f17" d="M 940.5,215.5 C 939.209,215.263 938.209,215.596 937.5,216.5C 936.167,216.5 934.833,216.5 933.5,216.5C 930.167,215.167 926.833,215.167 923.5,216.5C 921.585,216.216 919.919,216.549 918.5,217.5C 918.5,217.833 918.5,218.167 918.5,218.5C 913.135,215.994 907.469,214.994 901.5,215.5C 901.5,218.167 901.5,220.833 901.5,223.5C 901.167,223.5 900.833,223.5 900.5,223.5C 899.532,221.393 899.198,219.059 899.5,216.5C 895.298,216.183 891.298,216.517 887.5,217.5C 885.304,215.455 882.97,215.122 880.5,216.5C 879.209,216.737 878.209,216.404 877.5,215.5C 878.492,215.672 879.158,215.338 879.5,214.5C 899.989,213.608 920.323,213.941 940.5,215.5 Z"/></g>
<g><path style="opacity:1" fill="#6e6213" d="M 765.5,215.5 C 764.167,216.167 762.833,216.833 761.5,217.5C 760.833,217.5 760.5,217.833 760.5,218.5C 759.209,218.737 758.209,218.404 757.5,217.5C 759.916,216.032 762.583,215.365 765.5,215.5 Z"/></g>
<g><path style="opacity:1" fill="#f2d502" d="M 765.5,215.5 C 769.167,215.5 772.833,215.5 776.5,215.5C 776.737,216.791 776.404,217.791 775.5,218.5C 770.77,218.717 766.103,218.383 761.5,217.5C 762.833,216.833 764.167,216.167 765.5,215.5 Z"/></g>
<g><path style="opacity:1" fill="#fadb00" d="M 808.5,233.5 C 809.275,238.797 809.608,244.13 809.5,249.5C 791.31,249.774 780.643,241.108 777.5,223.5C 777.5,220.833 777.5,218.167 777.5,215.5C 792.074,214.608 802.408,220.608 808.5,233.5 Z"/></g>
<g><path style="opacity:1" fill="#fbdc00" d="M 918.5,218.5 C 927.808,223.782 932.475,231.782 932.5,242.5C 932.5,244.5 932.5,246.5 932.5,248.5C 930.833,248.5 929.167,248.5 927.5,248.5C 912.298,246.965 903.632,238.632 901.5,223.5C 901.5,220.833 901.5,218.167 901.5,215.5C 907.469,214.994 913.135,215.994 918.5,218.5 Z"/></g>
<g><path style="opacity:1" fill="#fbdc00" d="M 840.5,215.5 C 855.858,215.329 866.192,222.329 871.5,236.5C 871.5,240.833 871.5,245.167 871.5,249.5C 849.38,249.043 839.047,237.71 840.5,215.5 Z"/></g>
<g><path style="opacity:1" fill="#3a8f03" d="M 887.5,217.5 C 891.298,216.517 895.298,216.183 899.5,216.5C 899.198,219.059 899.532,221.393 900.5,223.5C 900.657,224.873 900.49,226.207 900,227.5C 897.142,222.47 892.975,219.136 887.5,217.5 Z"/></g>
<g><path style="opacity:1" fill="#4e5514" d="M 961.5,214.5 C 964.456,215.137 967.456,215.637 970.5,216C 966.975,216.179 963.641,216.679 960.5,217.5C 957.287,217.19 954.287,217.523 951.5,218.5C 950.234,217.91 948.901,217.41 947.5,217C 949.708,216.809 951.708,216.309 953.5,215.5C 956.385,215.806 959.052,215.473 961.5,214.5 Z"/></g>
<g><path style="opacity:1" fill="#96850e" d="M 754.5,217.5 C 752.5,217.5 750.5,217.5 748.5,217.5C 748.5,219.833 748.5,222.167 748.5,224.5C 747.527,222.052 747.194,219.385 747.5,216.5C 750.059,216.198 752.393,216.532 754.5,217.5 Z"/></g>
<g><path style="opacity:1" fill="#fbdd00" d="M 754.5,217.5 C 755.5,217.5 756.5,217.5 757.5,217.5C 758.209,218.404 759.209,218.737 760.5,218.5C 775.788,224.421 781.455,235.088 777.5,250.5C 761.978,250.6 752.312,243.267 748.5,228.5C 748.5,227.167 748.5,225.833 748.5,224.5C 748.5,222.167 748.5,219.833 748.5,217.5C 750.5,217.5 752.5,217.5 754.5,217.5 Z"/></g>
<g><path style="opacity:1" fill="#398906" d="M 951.5,218.5 C 954.287,217.523 957.287,217.19 960.5,217.5C 961.5,217.5 962.5,217.5 963.5,217.5C 963.5,221.5 963.5,225.5 963.5,229.5C 960.804,224.473 956.804,220.806 951.5,218.5 Z"/></g>
<g><path style="opacity:1" fill="#35740b" d="M 715.5,219.5 C 715.158,220.338 714.492,220.672 713.5,220.5C 707.996,219.765 702.329,219.598 696.5,220C 705.393,217.874 714.393,217.207 723.5,218C 720.635,218.183 717.969,218.683 715.5,219.5 Z"/></g>
<g><path style="opacity:1" fill="#3b9402" d="M 1027.5,217.5 C 1028.5,217.5 1029.5,217.5 1030.5,217.5C 1030.5,228.833 1030.5,240.167 1030.5,251.5C 1026.5,251.5 1022.5,251.5 1018.5,251.5C 1011.83,251.5 1005.17,251.5 998.5,251.5C 998.737,250.209 998.404,249.209 997.5,248.5C 997.5,246.5 997.5,244.5 997.5,242.5C 996.765,237.126 994.765,232.293 991.5,228C 1005.72,232.543 1017.72,229.043 1027.5,217.5 Z"/></g>
<g><path style="opacity:1" fill="#3a9003" d="M 684.5,219.5 C 682.91,221.821 680.577,222.821 677.5,222.5C 672.78,222.775 672.446,221.941 676.5,220C 679.146,219.503 681.813,219.336 684.5,219.5 Z"/></g>
<g><path style="opacity:1" fill="#fadb00" d="M 967.5,218.5 C 983.216,219.218 992.883,227.218 996.5,242.5C 996.5,245.833 996.5,249.167 996.5,252.5C 995.167,252.5 993.833,252.5 992.5,252.5C 977.204,251.878 967.871,244.212 964.5,229.5C 964.5,225.833 964.5,222.167 964.5,218.5C 965.5,218.5 966.5,218.5 967.5,218.5 Z"/></g>
<g><path style="opacity:1" fill="#f9db01" d="M 486.5,220.5 C 488.833,220.5 491.167,220.5 493.5,220.5C 494.804,243.194 484.137,254.528 461.5,254.5C 460.166,235.771 468.499,224.437 486.5,220.5 Z"/></g>
<g><path style="opacity:1" fill="#388905" d="M 735.5,222.5 C 739.167,222.5 742.833,222.5 746.5,222.5C 746.833,225.167 747.167,227.833 747.5,230.5C 747.565,230.938 747.399,231.272 747,231.5C 743.515,227.866 739.682,224.866 735.5,222.5 Z"/></g>
<g><path style="opacity:1" fill="#2a2b1a" d="M 923.5,216.5 C 926.833,215.167 930.167,215.167 933.5,216.5C 932.852,238.518 943.519,249.851 965.5,250.5C 966.982,230.084 957.649,218.751 937.5,216.5C 938.209,215.596 939.209,215.263 940.5,215.5C 944.833,215.5 949.167,215.5 953.5,215.5C 951.708,216.309 949.708,216.809 947.5,217C 948.901,217.41 950.234,217.91 951.5,218.5C 956.804,220.806 960.804,224.473 963.5,229.5C 963.833,229.5 964.167,229.5 964.5,229.5C 967.871,244.212 977.204,251.878 992.5,252.5C 991.432,253.434 990.099,253.768 988.5,253.5C 978.895,252.455 971.729,247.789 967,239.5C 966.501,243.486 966.334,247.486 966.5,251.5C 943.001,251.668 931.668,240.001 932.5,216.5C 929.5,216.5 926.5,216.5 923.5,216.5 Z"/></g>
<g><path style="opacity:1" fill="#fadc00" d="M 933.5,216.5 C 934.833,216.5 936.167,216.5 937.5,216.5C 957.649,218.751 966.982,230.084 965.5,250.5C 943.519,249.851 932.852,238.518 933.5,216.5 Z"/></g>
<g><path style="opacity:1" fill="#f9db01" d="M 434.5,259.5 C 432.167,259.5 429.833,259.5 427.5,259.5C 427.5,257.833 427.5,256.167 427.5,254.5C 427.405,248.79 428.738,243.457 431.5,238.5C 438.609,229.619 447.942,225.619 459.5,226.5C 459.618,231.98 458.785,237.314 457,242.5C 452.833,252.491 445.333,258.158 434.5,259.5 Z"/></g>
<g><path style="opacity:1" fill="#2a2f19" d="M 1026.5,215.5 C 1027.34,215.842 1027.67,216.508 1027.5,217.5C 1017.72,229.043 1005.72,232.543 991.5,228C 994.765,232.293 996.765,237.126 997.5,242.5C 997.167,242.5 996.833,242.5 996.5,242.5C 992.883,227.218 983.216,219.218 967.5,218.5C 971.785,217.705 976.119,217.372 980.5,217.5C 984.738,221.228 989.405,224.394 994.5,227C 1008.03,230.72 1018.7,226.886 1026.5,215.5 Z"/></g>
<g><path style="opacity:1" fill="#20201b" d="M 671.5,228.5 C 673.031,229.925 672.698,230.591 670.5,230.5C 667.362,229.319 664.362,229.319 661.5,230.5C 659.585,230.784 657.919,230.451 656.5,229.5C 661.453,228.671 666.453,228.337 671.5,228.5 Z"/></g>
<g><path style="opacity:1" fill="#e8cc04" d="M 734.5,221.5 C 729.146,221.431 723.813,221.098 718.5,220.5C 718.5,221.5 718.5,222.5 718.5,223.5C 702.609,224.397 686.943,226.064 671.5,228.5C 666.453,228.337 661.453,228.671 656.5,229.5C 551.503,242.994 447.503,261.161 344.5,284C 340.848,284.499 337.182,284.665 333.5,284.5C 332.508,284.328 331.842,284.662 331.5,285.5C 324.056,288.114 316.389,290.281 308.5,292C 280.93,298.309 253.263,304.143 225.5,309.5C 225.5,309.167 225.5,308.833 225.5,308.5C 232.628,306.638 239.628,304.638 246.5,302.5C 306.774,288.381 367.108,275.047 427.5,262.5C 434.165,261.5 440.832,260.5 447.5,259.5C 523.856,244.784 600.523,232.784 677.5,223.5C 689.499,222.5 701.499,221.5 713.5,220.5C 714.492,220.672 715.158,220.338 715.5,219.5C 725.842,218.954 736.175,218.287 746.5,217.5C 746.5,218.5 746.5,219.5 746.5,220.5C 742.5,220.833 738.5,221.167 734.5,221.5 Z"/></g>
<g><path style="opacity:1" fill="#f9db01" d="M 670.5,230.5 C 683.154,233.154 690.82,240.82 693.5,253.5C 693.5,256.833 693.5,260.167 693.5,263.5C 671.359,263.692 660.693,252.692 661.5,230.5C 664.362,229.319 667.362,229.319 670.5,230.5 Z"/></g>
<g><path style="opacity:1" fill="#fbdc00" d="M 422.5,233.5 C 423.99,255.675 413.656,267.008 391.5,267.5C 391.5,263.167 391.5,258.833 391.5,254.5C 396.798,240.333 407.131,233.333 422.5,233.5 Z"/></g>
<g><path style="opacity:1" fill="#398c04" d="M 460.5,255.5 C 456.625,255.896 452.792,256.562 449,257.5C 448.235,257.43 447.735,257.097 447.5,256.5C 455.356,251.798 459.356,244.798 459.5,235.5C 460.5,235.5 461.5,235.5 462.5,235.5C 460.794,242.033 460.128,248.699 460.5,255.5 Z"/></g>
<g><path style="opacity:1" fill="#353918" d="M 818.5,215.5 C 817.791,216.404 816.791,216.737 815.5,216.5C 813.5,216.5 811.5,216.5 809.5,216.5C 808.649,237.984 818.982,249.317 840.5,250.5C 840.5,245.833 840.5,241.167 840.5,236.5C 840.5,235.167 840.5,233.833 840.5,232.5C 839.626,229.211 838.959,225.877 838.5,222.5C 839.167,220.167 839.833,217.833 840.5,215.5C 839.047,237.71 849.38,249.043 871.5,249.5C 871.5,245.167 871.5,240.833 871.5,236.5C 872.268,237.263 872.768,238.263 873,239.5C 873.499,243.486 873.666,247.486 873.5,251.5C 860.138,252.332 849.638,247.332 842,236.5C 842.387,241.413 842.554,246.413 842.5,251.5C 828.872,252.697 818.372,247.697 811,236.5C 811.226,241.123 811.393,245.79 811.5,250.5C 798.767,251.876 788.6,247.543 781,237.5C 781.251,242.456 781.418,247.456 781.5,252.5C 778.287,252.81 775.287,252.477 772.5,251.5C 774.415,251.784 776.081,251.451 777.5,250.5C 781.455,235.088 775.788,224.421 760.5,218.5C 760.5,217.833 760.833,217.5 761.5,217.5C 766.103,218.383 770.77,218.717 775.5,218.5C 775.833,219.167 776.167,219.833 776.5,220.5C 774.143,220.337 771.81,220.503 769.5,221C 771.96,222.458 774.127,224.291 776,226.5C 776.464,225.906 776.631,225.239 776.5,224.5C 777.167,224.5 777.5,224.167 777.5,223.5C 780.643,241.108 791.31,249.774 809.5,249.5C 809.608,244.13 809.275,238.797 808.5,233.5C 808.567,232.041 808.234,230.708 807.5,229.5C 808.137,227.382 808.137,225.049 807.5,222.5C 807.415,220.667 806.748,219.334 805.5,218.5C 804.081,217.549 802.415,217.216 800.5,217.5C 806.209,214.916 812.209,214.25 818.5,215.5 Z"/></g>
<g><path style="opacity:1" fill="#3b9202" d="M 776.5,220.5 C 776.5,221.833 776.5,223.167 776.5,224.5C 776.631,225.239 776.464,225.906 776,226.5C 774.127,224.291 771.96,222.458 769.5,221C 771.81,220.503 774.143,220.337 776.5,220.5 Z"/></g>
<g><path style="opacity:1" fill="#3a8f03" d="M 805.5,218.5 C 806.748,219.334 807.415,220.667 807.5,222.5C 808.137,225.049 808.137,227.382 807.5,229.5C 805.798,224.959 802.798,221.459 798.5,219C 800.81,218.503 803.143,218.337 805.5,218.5 Z"/></g>
<g><path style="opacity:1" fill="#fbdc00" d="M 815.5,216.5 C 816.568,217.434 817.901,217.768 819.5,217.5C 830.028,220.032 837.028,226.365 840.5,236.5C 840.5,241.167 840.5,245.833 840.5,250.5C 818.982,249.317 808.649,237.984 809.5,216.5C 811.5,216.5 813.5,216.5 815.5,216.5 Z"/></g>
<g><path style="opacity:1" fill="#8b7c0f" d="M 818.5,215.5 C 822.167,215.5 825.833,215.5 829.5,215.5C 826.167,216.167 822.833,216.833 819.5,217.5C 817.901,217.768 816.568,217.434 815.5,216.5C 816.791,216.737 817.791,216.404 818.5,215.5 Z"/></g>
<g><path style="opacity:1" fill="#3b9502" d="M 918.5,217.5 C 919.919,216.549 921.585,216.216 923.5,216.5C 926.5,216.5 929.5,216.5 932.5,216.5C 931.668,240.001 943.001,251.668 966.5,251.5C 966.334,247.486 966.501,243.486 967,239.5C 971.729,247.789 978.895,252.455 988.5,253.5C 1002.32,254.496 1016.32,254.829 1030.5,254.5C 1030.5,275.833 1030.5,297.167 1030.5,318.5C 943.665,318.833 856.998,318.499 770.5,317.5C 803.947,319.672 836.947,316.839 869.5,309C 891,304.432 912,298.599 932.5,291.5C 938.956,290.182 945.289,288.349 951.5,286C 932.474,288.448 913.474,291.448 894.5,295C 841.836,303.521 788.836,307.021 735.5,305.5C 733.735,304.539 731.735,304.205 729.5,304.5C 721.821,304.404 714.154,304.07 706.5,303.5C 703.038,302.518 699.371,302.185 695.5,302.5C 639.198,298.059 582.865,294.059 526.5,290.5C 521.025,289.511 515.358,289.178 509.5,289.5C 508.081,288.549 506.415,288.216 504.5,288.5C 500.818,288.665 497.152,288.499 493.5,288C 497.536,287.272 501.536,286.439 505.5,285.5C 506.734,281.205 505.734,277.539 502.5,274.5C 502.167,273.167 501.833,271.833 501.5,270.5C 511.252,282.581 523.585,285.914 538.5,280.5C 537.522,265.498 529.522,256.165 514.5,252.5C 520.393,250.851 526.393,249.851 532.5,249.5C 537.194,272.189 550.86,280.689 573.5,275C 575.894,272.339 575.894,269.505 573.5,266.5C 573.833,266.167 574.167,265.833 574.5,265.5C 577.221,267.527 580.221,269.027 583.5,270C 590.234,270.829 596.901,270.496 603.5,269C 604.516,268.481 605.182,267.647 605.5,266.5C 604.649,264.147 604.149,261.813 604,259.5C 612.059,267.073 621.559,269.573 632.5,267C 635.275,266.994 637.275,265.827 638.5,263.5C 637.649,261.147 637.149,258.813 637,256.5C 644.898,265.081 654.731,269.081 666.5,268.5C 666.545,263.746 666.378,259.08 666,254.5C 673.79,262.378 683.29,266.045 694.5,265.5C 694.817,261.298 694.483,257.298 693.5,253.5C 693.343,252.127 693.51,250.793 694,249.5C 698.092,255.245 703.592,259.078 710.5,261C 714.79,261.923 719.123,262.423 723.5,262.5C 723.872,255.699 723.206,249.033 721.5,242.5C 729.087,253.606 739.754,258.606 753.5,257.5C 753.623,251.687 753.123,246.02 752,240.5C 757.212,247.189 764.045,250.856 772.5,251.5C 775.287,252.477 778.287,252.81 781.5,252.5C 781.418,247.456 781.251,242.456 781,237.5C 788.6,247.543 798.767,251.876 811.5,250.5C 811.393,245.79 811.226,241.123 811,236.5C 818.372,247.697 828.872,252.697 842.5,251.5C 842.554,246.413 842.387,241.413 842,236.5C 849.638,247.332 860.138,252.332 873.5,251.5C 873.666,247.486 873.499,243.486 873,239.5C 872.768,238.263 872.268,237.263 871.5,236.5C 871.5,235.167 871.5,233.833 871.5,232.5C 874.623,240.455 880.29,245.955 888.5,249C 893.73,250.546 899.063,251.38 904.5,251.5C 904.328,246.467 904.161,241.467 904,236.5C 911.338,246.914 921.505,251.581 934.5,250.5C 935.611,239.338 932.611,229.505 925.5,221C 923.423,219.295 921.09,218.128 918.5,217.5 Z"/></g>
<g><path style="opacity:1" fill="#fadb01" d="M 389.5,241.5 C 390.89,264.111 380.223,275.445 357.5,275.5C 357.092,264.717 360.425,255.383 367.5,247.5C 374.129,243.009 381.462,241.009 389.5,241.5 Z"/></g>
<g><path style="opacity:1" fill="#2b2d19" d="M 879.5,214.5 C 879.158,215.338 878.492,215.672 877.5,215.5C 875.5,215.5 873.5,215.5 871.5,215.5C 869.99,237.656 880.323,248.989 902.5,249.5C 904.596,231.969 897.262,220.969 880.5,216.5C 882.97,215.122 885.304,215.455 887.5,217.5C 892.975,219.136 897.142,222.47 900,227.5C 900.49,226.207 900.657,224.873 900.5,223.5C 900.833,223.5 901.167,223.5 901.5,223.5C 903.632,238.632 912.298,246.965 927.5,248.5C 929.265,249.461 931.265,249.795 933.5,249.5C 933.802,246.941 933.468,244.607 932.5,242.5C 932.475,231.782 927.808,223.782 918.5,218.5C 918.5,218.167 918.5,217.833 918.5,217.5C 921.09,218.128 923.423,219.295 925.5,221C 932.611,229.505 935.611,239.338 934.5,250.5C 921.505,251.581 911.338,246.914 904,236.5C 904.161,241.467 904.328,246.467 904.5,251.5C 899.063,251.38 893.73,250.546 888.5,249C 880.29,245.955 874.623,240.455 871.5,232.5C 871.5,233.833 871.5,235.167 871.5,236.5C 866.192,222.329 855.858,215.329 840.5,215.5C 839.833,217.833 839.167,220.167 838.5,222.5C 838.5,220.833 838.5,219.167 838.5,217.5C 834.486,217.334 830.486,217.501 826.5,218C 832.743,221.408 837.41,226.242 840.5,232.5C 840.5,233.833 840.5,235.167 840.5,236.5C 837.028,226.365 830.028,220.032 819.5,217.5C 822.833,216.833 826.167,216.167 829.5,215.5C 846.153,215.631 862.82,215.298 879.5,214.5 Z"/></g>
<g><path style="opacity:1" fill="#398b05" d="M 838.5,222.5 C 838.959,225.877 839.626,229.211 840.5,232.5C 837.41,226.242 832.743,221.408 826.5,218C 830.486,217.501 834.486,217.334 838.5,217.5C 838.5,219.167 838.5,220.833 838.5,222.5 Z"/></g>
<g><path style="opacity:1" fill="#3a8d04" d="M 871.5,232.5 C 868.684,224.852 863.35,219.685 855.5,217C 860.155,216.501 864.821,216.334 869.5,216.5C 869.246,221.97 869.913,227.304 871.5,232.5 Z"/></g>
<g><path style="opacity:1" fill="#fadc01" d="M 877.5,215.5 C 878.209,216.404 879.209,216.737 880.5,216.5C 897.262,220.969 904.596,231.969 902.5,249.5C 880.323,248.989 869.99,237.656 871.5,215.5C 873.5,215.5 875.5,215.5 877.5,215.5 Z"/></g>
<g><path style="opacity:1" fill="#398b05" d="M 363.5,246.5 C 364.552,246.351 365.552,246.517 366.5,247C 358.502,255.16 355.168,264.994 356.5,276.5C 352.208,277.594 347.874,278.094 343.5,278C 350.407,273.679 354.407,267.512 355.5,259.5C 356.324,255.688 356.824,251.688 357,247.5C 359.041,246.577 361.208,246.244 363.5,246.5 Z"/></g>
<g><path style="opacity:1" fill="#fadb01" d="M 355.5,255.5 C 352.466,273.175 341.799,281.842 323.5,281.5C 322.544,269.426 326.544,259.426 335.5,251.5C 341.83,248.585 348.497,247.252 355.5,247.5C 355.5,250.167 355.5,252.833 355.5,255.5 Z"/></g>
<g><path style="opacity:1" fill="#7f7110" d="M 932.5,242.5 C 933.468,244.607 933.802,246.941 933.5,249.5C 931.265,249.795 929.265,249.461 927.5,248.5C 929.167,248.5 930.833,248.5 932.5,248.5C 932.5,246.5 932.5,244.5 932.5,242.5 Z"/></g>
<g><path style="opacity:1" fill="#3b9402" d="M 333.5,250.5 C 329.774,254.12 326.607,258.786 324,264.5C 322.696,270.423 322.196,276.423 322.5,282.5C 323.552,282.351 324.552,282.517 325.5,283C 319.854,284.5 314.187,285.5 308.5,286C 316.207,277.685 319.207,267.852 317.5,256.5C 292.994,256.675 281.66,269.008 283.5,293.5C 274.423,294.852 265.423,296.685 256.5,299C 252.837,299.572 249.503,300.738 246.5,302.5C 239.628,304.638 232.628,306.638 225.5,308.5C 223.194,308.993 220.861,309.326 218.5,309.5C 209.804,310.425 201.47,312.425 193.5,315.5C 189.86,316.273 186.193,316.94 182.5,317.5C 126.208,318.492 69.8751,318.825 13.5,318.5C 13.2065,314.563 13.5399,310.73 14.5,307C 120.007,283.669 226.341,264.835 333.5,250.5 Z"/></g>
<g><path style="opacity:1" fill="#294114" d="M 997.5,248.5 C 998.404,249.209 998.737,250.209 998.5,251.5C 1005.17,251.5 1011.83,251.5 1018.5,251.5C 1011.69,252.491 1004.69,252.825 997.5,252.5C 997.5,251.167 997.5,249.833 997.5,248.5 Z"/></g>
<g><path style="opacity:1" fill="#2e3019" d="M 517.5,212.5 C 518.833,212.5 520.167,212.5 521.5,212.5C 501.682,214.999 492.348,226.333 493.5,246.5C 502.098,247.052 509.765,244.718 516.5,239.5C 516.5,239.833 516.5,240.167 516.5,240.5C 514.287,242.86 511.621,244.694 508.5,246C 513.803,245.619 519.136,245.119 524.5,244.5C 524.182,239.968 524.515,235.634 525.5,231.5C 525.328,232.492 525.662,233.158 526.5,233.5C 525.841,236.455 525.508,239.455 525.5,242.5C 529.582,242.656 533.582,242.156 537.5,241C 545.182,238.85 550.849,234.35 554.5,227.5C 555.167,227.5 555.5,227.833 555.5,228.5C 553.408,233.761 549.741,237.594 544.5,240C 550.18,239.944 555.846,239.444 561.5,238.5C 561.5,236.5 561.5,234.5 561.5,232.5C 561.833,232.5 562.167,232.5 562.5,232.5C 562.5,234.167 562.5,235.833 562.5,237.5C 568.025,236.452 573.358,234.785 578.5,232.5C 578.833,232.5 579.167,232.5 579.5,232.5C 578.942,233.79 577.942,234.623 576.5,235C 582.488,234.742 588.488,234.242 594.5,233.5C 593.841,230.545 593.508,227.545 593.5,224.5C 592.167,224.5 590.833,224.5 589.5,224.5C 590.919,223.549 592.585,223.216 594.5,223.5C 594.232,221.901 594.566,220.568 595.5,219.5C 595.5,223.833 595.5,228.167 595.5,232.5C 604.25,231.624 611.917,228.291 618.5,222.5C 618.833,222.5 619.167,222.5 619.5,222.5C 617.275,225.889 614.275,228.389 610.5,230C 626.355,228.851 642.021,227.018 657.5,224.5C 657.833,224.5 658.167,224.5 658.5,224.5C 665.812,223.836 672.479,221.502 678.5,217.5C 680.5,218.167 682.5,218.833 684.5,219.5C 681.813,219.336 679.146,219.503 676.5,220C 672.446,221.941 672.78,222.775 677.5,222.5C 677.5,222.833 677.5,223.167 677.5,223.5C 600.523,232.784 523.856,244.784 447.5,259.5C 443.639,258.541 443.639,257.541 447.5,256.5C 447.735,257.097 448.235,257.43 449,257.5C 452.792,256.562 456.625,255.896 460.5,255.5C 461.167,255.5 461.5,255.167 461.5,254.5C 484.137,254.528 494.804,243.194 493.5,220.5C 491.167,220.5 488.833,220.5 486.5,220.5C 488.948,219.527 491.615,219.194 494.5,219.5C 494.337,221.857 494.503,224.19 495,226.5C 499.985,217.918 507.485,213.251 517.5,212.5 Z"/></g>
<g><path style="opacity:1" fill="#398b05" d="M 490.5,241.5 C 491.468,243.607 491.802,245.941 491.5,248.5C 493.199,248.34 494.866,248.506 496.5,249C 492.527,249.998 488.527,250.331 484.5,250C 487.523,247.823 489.523,244.989 490.5,241.5 Z"/></g>
<g><path style="opacity:1" fill="#3a8e04" d="M 525.5,231.5 C 524.515,235.634 524.182,239.968 524.5,244.5C 519.136,245.119 513.803,245.619 508.5,246C 511.621,244.694 514.287,242.86 516.5,240.5C 520.281,237.625 523.114,233.958 525,229.5C 525.464,230.094 525.631,230.761 525.5,231.5 Z"/></g>
<g><path style="opacity:1" fill="#3a8f03" d="M 560.5,226.5 C 560.205,228.735 560.539,230.735 561.5,232.5C 561.5,234.5 561.5,236.5 561.5,238.5C 555.846,239.444 550.18,239.944 544.5,240C 549.741,237.594 553.408,233.761 555.5,228.5C 556.779,227.032 558.446,226.365 560.5,226.5 Z"/></g>
<g><path style="opacity:1" fill="#3a9003" d="M 589.5,224.5 C 590.833,224.5 592.167,224.5 593.5,224.5C 593.508,227.545 593.841,230.545 594.5,233.5C 588.488,234.242 582.488,234.742 576.5,235C 577.942,234.623 578.942,233.79 579.5,232.5C 583.146,230.183 586.48,227.516 589.5,224.5 Z"/></g>
<g><path style="opacity:1" fill="#484714" d="M 562.5,223.5 C 562.5,226.5 562.5,229.5 562.5,232.5C 562.167,232.5 561.833,232.5 561.5,232.5C 560.539,230.735 560.205,228.735 560.5,226.5C 561.167,225.5 561.833,224.5 562.5,223.5 Z"/></g>
<g><path style="opacity:1" fill="#3a8f04" d="M 657.5,224.5 C 642.021,227.018 626.355,228.851 610.5,230C 614.275,228.389 617.275,225.889 619.5,222.5C 621.527,222.338 623.527,222.505 625.5,223C 626.38,224.356 626.714,225.856 626.5,227.5C 633.395,227.056 639.728,224.89 645.5,221C 649.486,220.501 653.486,220.334 657.5,220.5C 657.5,221.833 657.5,223.167 657.5,224.5 Z"/></g>
<g><path style="opacity:1" fill="#2f3219" d="M 734.5,221.5 C 734.5,222.167 734.833,222.5 735.5,222.5C 739.682,224.866 743.515,227.866 747,231.5C 747.399,231.272 747.565,230.938 747.5,230.5C 748.338,230.158 748.672,229.492 748.5,228.5C 752.312,243.267 761.978,250.6 777.5,250.5C 776.081,251.451 774.415,251.784 772.5,251.5C 764.045,250.856 757.212,247.189 752,240.5C 753.123,246.02 753.623,251.687 753.5,257.5C 739.754,258.606 729.087,253.606 721.5,242.5C 723.206,249.033 723.872,255.699 723.5,262.5C 719.123,262.423 714.79,261.923 710.5,261C 703.592,259.078 698.092,255.245 694,249.5C 693.51,250.793 693.343,252.127 693.5,253.5C 690.82,240.82 683.154,233.154 670.5,230.5C 672.698,230.591 673.031,229.925 671.5,228.5C 686.943,226.064 702.609,224.397 718.5,223.5C 718.5,222.5 718.5,221.5 718.5,220.5C 723.813,221.098 729.146,221.431 734.5,221.5 Z"/></g>
<g><path style="opacity:1" fill="#398906" d="M 685.5,227.5 C 686.833,227.5 688.167,227.5 689.5,227.5C 689.455,232.254 689.622,236.92 690,241.5C 686.248,235.863 681.082,232.03 674.5,230C 678.241,228.986 681.907,228.153 685.5,227.5 Z"/></g>
<g><path style="opacity:1" fill="#f9db01" d="M 690.5,226.5 C 712.466,227.134 723.132,238.467 722.5,260.5C 699.863,260.528 689.196,249.194 690.5,226.5 Z"/></g>
<g><path style="opacity:1" fill="#398b05" d="M 721.5,242.5 C 717.772,235.106 712.106,229.772 704.5,226.5C 709.099,225.342 713.766,224.675 718.5,224.5C 718.244,230.725 719.244,236.725 721.5,242.5 Z"/></g>
<g><path style="opacity:1" fill="#fadc00" d="M 720.5,222.5 C 742.668,223.002 753.001,234.335 751.5,256.5C 729.263,255.932 718.93,244.599 720.5,222.5 Z"/></g>
<g><path style="opacity:1" fill="#274014" d="M 992.5,252.5 C 993.833,252.5 995.167,252.5 996.5,252.5C 1007.99,253.495 1019.65,253.828 1031.5,253.5C 1031.83,275.34 1031.5,297.006 1030.5,318.5C 1030.5,297.167 1030.5,275.833 1030.5,254.5C 1016.32,254.829 1002.32,254.496 988.5,253.5C 990.099,253.768 991.432,253.434 992.5,252.5 Z"/></g>
<g><path style="opacity:1" fill="#9c8b0e" d="M 427.5,254.5 C 427.5,256.167 427.5,257.833 427.5,259.5C 429.833,259.5 432.167,259.5 434.5,259.5C 432.052,260.473 429.385,260.806 426.5,260.5C 426.205,258.265 426.539,256.265 427.5,254.5 Z"/></g>
<g><path style="opacity:1" fill="#2d2f19" d="M 422.5,233.5 C 423.167,235.833 423.833,238.167 424.5,240.5C 423.814,250.039 419.814,257.872 412.5,264C 416.733,263.327 421.067,262.827 425.5,262.5C 425.11,254.175 426.443,246.175 429.5,238.5C 430.167,238.5 430.833,238.5 431.5,238.5C 428.738,243.457 427.405,248.79 427.5,254.5C 426.539,256.265 426.205,258.265 426.5,260.5C 426.833,261.167 427.167,261.833 427.5,262.5C 367.108,275.047 306.774,288.381 246.5,302.5C 249.503,300.738 252.837,299.572 256.5,299C 265.423,296.685 274.423,294.852 283.5,293.5C 281.66,269.008 292.994,256.675 317.5,256.5C 319.207,267.852 316.207,277.685 308.5,286C 314.187,285.5 319.854,284.5 325.5,283C 324.552,282.517 323.552,282.351 322.5,282.5C 322.196,276.423 322.696,270.423 324,264.5C 326.607,258.786 329.774,254.12 333.5,250.5C 334.251,249.427 335.251,249.26 336.5,250C 335.944,250.383 335.611,250.883 335.5,251.5C 326.544,259.426 322.544,269.426 323.5,281.5C 341.799,281.842 352.466,273.175 355.5,255.5C 355.5,256.833 355.5,258.167 355.5,259.5C 354.407,267.512 350.407,273.679 343.5,278C 347.874,278.094 352.208,277.594 356.5,276.5C 355.168,264.994 358.502,255.16 366.5,247C 365.552,246.517 364.552,246.351 363.5,246.5C 363.917,245.876 364.584,245.543 365.5,245.5C 366.713,245.747 367.38,246.414 367.5,247.5C 360.425,255.383 357.092,264.717 357.5,275.5C 380.223,275.445 390.89,264.111 389.5,241.5C 390.167,243.5 390.833,245.5 391.5,247.5C 391.5,248.5 391.5,249.5 391.5,250.5C 391.5,251.833 391.5,253.167 391.5,254.5C 391.5,258.833 391.5,263.167 391.5,267.5C 413.656,267.008 423.99,255.675 422.5,233.5 Z"/></g>
<g><path style="opacity:1" fill="#3a9103" d="M 388.5,259.5 C 389.479,262.625 389.813,265.958 389.5,269.5C 386.824,270.008 384.157,270.175 381.5,270C 384.722,267.044 387.056,263.544 388.5,259.5 Z"/></g>
<g><path style="opacity:1" fill="#fadb00" d="M 310.5,257.5 C 312.5,257.5 314.5,257.5 316.5,257.5C 317.804,280.194 307.137,291.528 284.5,291.5C 283.143,272.22 291.809,260.887 310.5,257.5 Z"/></g>
<g><path style="opacity:1" fill="#388606" d="M 391.5,250.5 C 391.5,249.5 391.5,248.5 391.5,247.5C 391.5,245.833 391.5,244.167 391.5,242.5C 392.978,242.238 394.311,242.571 395.5,243.5C 394.392,246.059 393.059,248.392 391.5,250.5 Z"/></g>
<g><path style="opacity:1" fill="#3a8e04" d="M 429.5,238.5 C 426.443,246.175 425.11,254.175 425.5,262.5C 421.067,262.827 416.733,263.327 412.5,264C 419.814,257.872 423.814,250.039 424.5,240.5C 425.552,238.744 427.219,238.077 429.5,238.5 Z"/></g>
<g><path style="opacity:0.73" fill="#28261b" d="M 140.5,242.5 C 176.565,242.529 212.565,244.029 248.5,247C 208.328,252.549 168.328,259.215 128.5,267C 89.2918,275.719 50.2918,285.219 11.5,295.5C 11.5,281.167 11.5,266.833 11.5,252.5C 54.5369,247.663 97.5369,244.329 140.5,242.5 Z"/></g>
<g><path style="opacity:1" fill="#8b7b0e" d="M 13.5,254.5 C 12.853,267.544 13.5197,280.211 15.5,292.5C 14.791,293.404 13.791,293.737 12.5,293.5C 12.1712,280.323 12.5045,267.323 13.5,254.5 Z"/></g>
<g><path style="opacity:1" fill="#675d14" d="M 223.5,246.5 C 226.978,246.184 230.312,246.684 233.5,248C 232.207,248.49 230.873,248.657 229.5,248.5C 227.5,247.833 225.5,247.167 223.5,246.5 Z"/></g>
<g><path style="opacity:1" fill="#fbdc00" d="M 223.5,246.5 C 225.5,247.167 227.5,247.833 229.5,248.5C 157.05,257.923 85.7168,272.59 15.5,292.5C 13.5197,280.211 12.853,267.544 13.5,254.5C 49.7236,250.097 86.057,246.93 122.5,245C 156.187,244.253 189.854,244.753 223.5,246.5 Z"/></g>
<g><path style="opacity:1" fill="#9c8b10" d="M 331.5,285.5 C 331.842,284.662 332.508,284.328 333.5,284.5C 337.833,285.167 342.167,285.833 346.5,286.5C 341.833,286.5 337.167,286.5 332.5,286.5C 332.5,285.833 332.167,285.5 331.5,285.5 Z"/></g>
<g><path style="opacity:1" fill="#fadc00" d="M 499.5,289.5 C 502.625,290.479 505.958,290.813 509.5,290.5C 515.172,290.76 520.839,291.093 526.5,291.5C 582.445,296.252 638.445,300.252 694.5,303.5C 695.568,304.434 696.901,304.768 698.5,304.5C 707.149,305.203 715.815,305.536 724.5,305.5C 727.962,306.482 731.629,306.815 735.5,306.5C 802.165,308.634 868.165,302.967 933.5,289.5C 934.167,289.667 934.833,289.833 935.5,290C 934.263,290.232 933.263,290.732 932.5,291.5C 902.164,299.869 871.498,307.035 840.5,313C 817.282,316.172 793.949,317.338 770.5,316.5C 736.167,316.5 701.833,316.5 667.5,316.5C 619.525,313.391 571.525,310.724 523.5,308.5C 514.682,307.507 505.682,307.173 496.5,307.5C 473.833,306.167 451.167,306.167 428.5,307.5C 416.824,307.561 405.157,307.894 393.5,308.5C 393.5,308.167 393.5,307.833 393.5,307.5C 397.059,307.592 400.392,306.759 403.5,305C 402.469,301.411 401.136,297.911 399.5,294.5C 400.167,294.167 400.833,293.833 401.5,293.5C 405.335,295.918 409.335,298.085 413.5,300C 421.265,300.805 428.932,300.305 436.5,298.5C 436.335,296.173 435.669,294.007 434.5,292C 438.039,290.496 441.705,290.163 445.5,291C 454.577,294.078 463.577,293.744 472.5,290C 481.494,289.5 490.494,289.334 499.5,289.5 Z"/></g>
<g><path style="opacity:1" fill="#575414" d="M 504.5,288.5 C 506.415,288.216 508.081,288.549 509.5,289.5C 509.5,289.833 509.5,290.167 509.5,290.5C 505.958,290.813 502.625,290.479 499.5,289.5C 501.415,289.784 503.081,289.451 504.5,288.5 Z"/></g>
<g><path style="opacity:1" fill="#423f19" d="M 509.5,290.5 C 509.5,290.167 509.5,289.833 509.5,289.5C 515.358,289.178 521.025,289.511 526.5,290.5C 526.5,290.833 526.5,291.167 526.5,291.5C 520.839,291.093 515.172,290.76 509.5,290.5 Z"/></g>
<g><path style="opacity:1" fill="#39391a" d="M 526.5,291.5 C 526.5,291.167 526.5,290.833 526.5,290.5C 582.865,294.059 639.198,298.059 695.5,302.5C 695.5,303.167 695.167,303.5 694.5,303.5C 638.445,300.252 582.445,296.252 526.5,291.5 Z"/></g>
<g><path style="opacity:1" fill="#f9db01" d="M 321.5,317.5 C 320.209,317.263 319.209,317.596 318.5,318.5C 311.746,320.197 305.412,319.197 299.5,315.5C 294.249,311.745 290.249,306.912 287.5,301C 305.964,289.783 320.63,293.617 331.5,312.5C 328.419,314.707 325.086,316.374 321.5,317.5 Z"/></g>
<g><path style="opacity:1" fill="#303119" d="M 656.5,229.5 C 657.919,230.451 659.585,230.784 661.5,230.5C 660.693,252.692 671.359,263.692 693.5,263.5C 693.5,260.167 693.5,256.833 693.5,253.5C 694.483,257.298 694.817,261.298 694.5,265.5C 683.29,266.045 673.79,262.378 666,254.5C 666.378,259.08 666.545,263.746 666.5,268.5C 654.731,269.081 644.898,265.081 637,256.5C 637.149,258.813 637.649,261.147 638.5,263.5C 637.275,265.827 635.275,266.994 632.5,267C 621.559,269.573 612.059,267.073 604,259.5C 604.149,261.813 604.649,264.147 605.5,266.5C 605.182,267.647 604.516,268.481 603.5,269C 596.901,270.496 590.234,270.829 583.5,270C 580.221,269.027 577.221,267.527 574.5,265.5C 574.167,265.833 573.833,266.167 573.5,266.5C 575.894,269.505 575.894,272.339 573.5,275C 550.86,280.689 537.194,272.189 532.5,249.5C 526.393,249.851 520.393,250.851 514.5,252.5C 529.522,256.165 537.522,265.498 538.5,280.5C 523.585,285.914 511.252,282.581 501.5,270.5C 501.833,271.833 502.167,273.167 502.5,274.5C 505.734,277.539 506.734,281.205 505.5,285.5C 501.536,286.439 497.536,287.272 493.5,288C 497.152,288.499 500.818,288.665 504.5,288.5C 503.081,289.451 501.415,289.784 499.5,289.5C 490.494,289.334 481.494,289.5 472.5,290C 463.577,293.744 454.577,294.078 445.5,291C 441.705,290.163 438.039,290.496 434.5,292C 435.669,294.007 436.335,296.173 436.5,298.5C 428.932,300.305 421.265,300.805 413.5,300C 409.335,298.085 405.335,295.918 401.5,293.5C 400.833,293.833 400.167,294.167 399.5,294.5C 401.136,297.911 402.469,301.411 403.5,305C 400.392,306.759 397.059,307.592 393.5,307.5C 392.209,307.737 391.209,307.404 390.5,306.5C 394.788,307.014 398.455,305.847 401.5,303C 394.827,282.329 381.494,275.663 361.5,283C 364.384,297.39 373.05,305.223 387.5,306.5C 386.791,307.404 385.791,307.737 384.5,307.5C 380.869,307.84 377.536,307.006 374.5,305C 371.322,302.486 368.156,299.986 365,297.5C 364.5,297.667 364,297.833 363.5,298C 366.146,301.789 367.812,305.956 368.5,310.5C 374.161,310.093 379.828,309.76 385.5,309.5C 388.279,309.721 390.946,309.388 393.5,308.5C 405.157,307.894 416.824,307.561 428.5,307.5C 433.363,307.181 438.03,307.514 442.5,308.5C 402.915,308.55 363.581,311.55 324.5,317.5C 323.348,318.625 322.348,318.625 321.5,317.5C 325.086,316.374 328.419,314.707 331.5,312.5C 320.63,293.617 305.964,289.783 287.5,301C 290.249,306.912 294.249,311.745 299.5,315.5C 300.122,317.335 301.456,318.502 303.5,319C 291.154,319.619 278.821,319.452 266.5,318.5C 266.5,318.167 266.5,317.833 266.5,317.5C 274.5,317.5 282.5,317.5 290.5,317.5C 293.247,317.813 295.914,317.48 298.5,316.5C 298.376,315.893 298.043,315.56 297.5,315.5C 294.521,313.188 291.854,310.521 289.5,307.5C 287.5,307.167 285.5,306.833 283.5,306.5C 256.116,309.506 228.783,312.84 201.5,316.5C 200.167,316.833 198.833,317.167 197.5,317.5C 196.486,316.326 195.153,315.66 193.5,315.5C 201.47,312.425 209.804,310.425 218.5,309.5C 213.756,311.442 208.756,312.942 203.5,314C 211.123,313.576 218.456,312.076 225.5,309.5C 253.263,304.143 280.93,298.309 308.5,292C 316.389,290.281 324.056,288.114 331.5,285.5C 332.167,285.5 332.5,285.833 332.5,286.5C 329.031,285.887 327.031,287.221 326.5,290.5C 329.384,297.572 333.717,303.739 339.5,309C 347.865,312.884 356.531,313.55 365.5,311C 366.382,306.936 365.549,303.103 363,299.5C 359.286,292.894 353.786,288.56 346.5,286.5C 342.167,285.833 337.833,285.167 333.5,284.5C 337.182,284.665 340.848,284.499 344.5,284C 447.503,261.161 551.503,242.994 656.5,229.5 Z"/></g>
<g><path style="opacity:1" fill="#edd103" d="M 325.5,302.5 C 327.364,301.207 329.364,301.207 331.5,302.5C 334.796,307.297 339.129,310.797 344.5,313C 340.527,313.998 336.527,314.331 332.5,314C 332.181,309.235 329.848,305.401 325.5,302.5 Z"/></g>
<g><path style="opacity:1" fill="#398c05" d="M 282.5,298.5 C 283.873,298.343 285.207,298.51 286.5,299C 285.521,300.779 285.854,302.445 287.5,304C 267.841,306.749 248.174,309.083 228.5,311C 246.762,307.385 264.762,303.218 282.5,298.5 Z"/></g>
<g><path style="opacity:1" fill="#f2d402" d="M 384.5,307.5 C 384.833,308.167 385.167,308.833 385.5,309.5C 379.828,309.76 374.161,310.093 368.5,310.5C 367.812,305.956 366.146,301.789 363.5,298C 364,297.833 364.5,297.667 365,297.5C 368.156,299.986 371.322,302.486 374.5,305C 377.536,307.006 380.869,307.84 384.5,307.5 Z"/></g>
<g><path style="opacity:1" fill="#3a8f04" d="M 326.5,290.5 C 326.804,293.579 327.804,296.413 329.5,299C 327.167,299.667 324.833,299.667 322.5,299C 319.282,296.223 315.615,294.223 311.5,293C 316.393,291.518 321.393,290.685 326.5,290.5 Z"/></g>
<g><path style="opacity:1" fill="#fadc00" d="M 332.5,286.5 C 337.167,286.5 341.833,286.5 346.5,286.5C 353.786,288.56 359.286,292.894 363,299.5C 365.549,303.103 366.382,306.936 365.5,311C 356.531,313.55 347.865,312.884 339.5,309C 333.717,303.739 329.384,297.572 326.5,290.5C 327.031,287.221 329.031,285.887 332.5,286.5 Z"/></g>
<g><path style="opacity:1" fill="#3a8e04" d="M 357.5,282.5 C 358.496,282.414 359.329,282.748 360,283.5C 361.011,287.368 362.511,291.034 364.5,294.5C 364,294.833 363.5,295.167 363,295.5C 358.781,290.638 353.614,287.138 347.5,285C 350.991,284.262 354.325,283.429 357.5,282.5 Z"/></g>
<g><path style="opacity:1" fill="#f9db01" d="M 390.5,306.5 C 389.5,306.5 388.5,306.5 387.5,306.5C 373.05,305.223 364.384,297.39 361.5,283C 381.494,275.663 394.827,282.329 401.5,303C 398.455,305.847 394.788,307.014 390.5,306.5 Z"/></g>
<g><path style="opacity:1" fill="#398a05" d="M 389.5,275.5 C 390.833,275.5 392.167,275.5 393.5,275.5C 394.692,281.717 397.359,287.217 401.5,292C 401,292.167 400.5,292.333 400,292.5C 396.9,289.4 393.733,286.233 390.5,283C 387.491,281.496 384.491,279.996 381.5,278.5C 384.276,277.485 386.943,276.485 389.5,275.5 Z"/></g>
<g><path style="opacity:1" fill="#fadb01" d="M 415.5,272.5 C 425.892,277.581 432.225,285.914 434.5,297.5C 412.766,303.305 399.433,295.305 394.5,273.5C 401.465,272.659 408.465,272.326 415.5,272.5 Z"/></g>
<g><path style="opacity:1" fill="#3a9003" d="M 415.5,272.5 C 415.389,271.883 415.056,271.383 414.5,271C 419.501,270.1 424.501,269.266 429.5,268.5C 430.938,277.217 435.271,284.051 442.5,289C 439.446,289.821 436.446,289.655 433.5,288.5C 430.244,279.902 424.244,274.568 415.5,272.5 Z"/></g>
<g><path style="opacity:1" fill="#f9db01" d="M 437.5,264.5 C 455.985,263.357 466.652,271.69 469.5,289.5C 449.248,295.376 436.248,288.209 430.5,268C 432.548,266.168 434.881,265.001 437.5,264.5 Z"/></g>
<g><path style="opacity:1" fill="#398c04" d="M 460.5,261.5 C 461.5,261.5 462.5,261.5 463.5,261.5C 465.683,274.064 472.683,282.564 484.5,287C 480.129,287.828 475.795,287.661 471.5,286.5C 468.527,275.695 461.861,268.195 451.5,264C 454.628,263.159 457.628,262.325 460.5,261.5 Z"/></g>
<g><path style="opacity:1" fill="#fadb01" d="M 502.5,274.5 C 503.758,277.694 504.424,281.027 504.5,284.5C 483.675,290.255 470.341,282.755 464.5,262C 480.67,256.033 493.336,260.2 502.5,274.5 Z"/></g>
<g><path style="opacity:1" fill="#398905" d="M 501.5,270.5 C 497.317,263.832 491.317,259.666 483.5,258C 487.834,257.1 492.168,256.266 496.5,255.5C 497.311,260.787 498.977,265.787 501.5,270.5 Z"/></g>
<g><path style="opacity:1" fill="#fadb01" d="M 501.5,254.5 C 521.555,251.51 533.555,259.843 537.5,279.5C 516.417,285.292 503.083,277.625 497.5,256.5C 498.949,255.828 500.282,255.161 501.5,254.5 Z"/></g>
<g><path style="opacity:1" fill="#fadb01" d="M 537.5,248.5 C 557.532,245.501 569.532,253.835 573.5,273.5C 552.417,279.292 539.083,271.625 533.5,250.5C 534.949,249.828 536.282,249.161 537.5,248.5 Z"/></g>
<g><path style="opacity:1" fill="#388706" d="M 556.5,244.5 C 558.5,244.5 560.5,244.5 562.5,244.5C 563.141,247.221 563.641,249.888 564,252.5C 559.999,249.441 555.499,247.441 550.5,246.5C 552.631,245.831 554.631,245.165 556.5,244.5 Z"/></g>
<g><path style="opacity:1" fill="#fadc00" d="M 569.5,242.5 C 588.77,240.128 600.103,248.461 603.5,267.5C 582.417,273.292 569.083,265.625 563.5,244.5C 565.631,243.831 567.631,243.165 569.5,242.5 Z"/></g>
<g><path style="opacity:1" fill="#fadb01" d="M 600.5,239.5 C 620.532,236.501 632.532,244.835 636.5,264.5C 615.417,270.292 602.083,262.625 596.5,241.5C 597.949,240.828 599.282,240.161 600.5,239.5 Z"/></g>
<g><path style="opacity:1" fill="#388706" d="M 589.5,239.5 C 591.5,239.5 593.5,239.5 595.5,239.5C 595.727,242.965 596.227,246.299 597,249.5C 593.171,245 588.338,242.167 582.5,241C 585.036,240.814 587.369,240.314 589.5,239.5 Z"/></g>
<g><path style="opacity:1" fill="#3a8e04" d="M 625.5,234.5 C 627.5,234.5 629.5,234.5 631.5,234.5C 631.691,239.923 632.191,245.257 633,250.5C 627.77,242.298 620.27,237.798 610.5,237C 615.728,236.704 620.728,235.871 625.5,234.5 Z"/></g>
<g><path style="opacity:1" fill="#fbdc00" d="M 640.5,233.5 C 658.392,237.086 666.392,248.086 664.5,266.5C 646.185,267.176 635.852,258.509 633.5,240.5C 633.5,238.167 633.5,235.833 633.5,233.5C 635.833,233.5 638.167,233.5 640.5,233.5 Z"/></g>
<g><path style="opacity:1" fill="#93830e" d="M 640.5,233.5 C 638.167,233.5 635.833,233.5 633.5,233.5C 633.5,235.833 633.5,238.167 633.5,240.5C 632.527,238.052 632.194,235.385 632.5,232.5C 635.385,232.194 638.052,232.527 640.5,233.5 Z"/></g>
<g><path style="opacity:1" fill="#3a8f04" d="M 648.5,231.5 C 652.167,231.5 655.833,231.5 659.5,231.5C 659.632,234.889 659.799,238.223 660,241.5C 655.842,237.505 651.008,234.671 645.5,233C 646.737,232.768 647.737,232.268 648.5,231.5 Z"/></g>
<g><path style="opacity:1" fill="#3c600f" d="M 695.5,302.5 C 699.371,302.185 703.038,302.518 706.5,303.5C 703.615,303.194 700.948,303.527 698.5,304.5C 696.901,304.768 695.568,304.434 694.5,303.5C 695.167,303.5 695.5,303.167 695.5,302.5 Z"/></g>
<g><path style="opacity:1" fill="#3a371a" d="M 698.5,304.5 C 700.948,303.527 703.615,303.194 706.5,303.5C 714.154,304.07 721.821,304.404 729.5,304.5C 728.081,305.451 726.415,305.784 724.5,305.5C 715.815,305.536 707.149,305.203 698.5,304.5 Z"/></g>
<g><path style="opacity:1" fill="#555214" d="M 729.5,304.5 C 731.735,304.205 733.735,304.539 735.5,305.5C 735.5,305.833 735.5,306.167 735.5,306.5C 731.629,306.815 727.962,306.482 724.5,305.5C 726.415,305.784 728.081,305.451 729.5,304.5 Z"/></g>
<g><path style="opacity:1" fill="#303518" d="M 932.5,291.5 C 933.263,290.732 934.263,290.232 935.5,290C 934.833,289.833 934.167,289.667 933.5,289.5C 868.165,302.967 802.165,308.634 735.5,306.5C 735.5,306.167 735.5,305.833 735.5,305.5C 788.836,307.021 841.836,303.521 894.5,295C 913.474,291.448 932.474,288.448 951.5,286C 945.289,288.349 938.956,290.182 932.5,291.5 Z"/></g>
<g><path style="opacity:1" fill="#f8d901" d="M 297.5,315.5 C 295.167,316.167 292.833,316.833 290.5,317.5C 282.5,317.5 274.5,317.5 266.5,317.5C 244.66,317.831 222.994,317.497 201.5,316.5C 228.783,312.84 256.116,309.506 283.5,306.5C 285.5,306.833 287.5,307.167 289.5,307.5C 291.854,310.521 294.521,313.188 297.5,315.5 Z"/></g>
<g><path style="opacity:1" fill="#464b15" d="M 428.5,307.5 C 451.167,306.167 473.833,306.167 496.5,307.5C 491.305,307.179 486.305,307.513 481.5,308.5C 468.5,308.5 455.5,308.5 442.5,308.5C 438.03,307.514 433.363,307.181 428.5,307.5 Z"/></g>
<g><path style="opacity:1" fill="#6b6013" d="M 387.5,306.5 C 388.5,306.5 389.5,306.5 390.5,306.5C 391.209,307.404 392.209,307.737 393.5,307.5C 393.5,307.833 393.5,308.167 393.5,308.5C 390.946,309.388 388.279,309.721 385.5,309.5C 385.167,308.833 384.833,308.167 384.5,307.5C 385.791,307.737 386.791,307.404 387.5,306.5 Z"/></g>
<g><path style="opacity:1" fill="#3b9402" d="M 442.5,308.5 C 455.5,308.5 468.5,308.5 481.5,308.5C 495.508,308.577 509.508,308.911 523.5,309.5C 568.524,311.891 613.524,314.558 658.5,317.5C 547.167,318.833 435.833,318.833 324.5,317.5C 363.581,311.55 402.915,308.55 442.5,308.5 Z"/></g>
<g><path style="opacity:1" fill="#2e3718" d="M 481.5,308.5 C 486.305,307.513 491.305,307.179 496.5,307.5C 505.682,307.173 514.682,307.507 523.5,308.5C 523.5,308.833 523.5,309.167 523.5,309.5C 509.508,308.911 495.508,308.577 481.5,308.5 Z"/></g>
<g><path style="opacity:1" fill="#2b3219" d="M 523.5,309.5 C 523.5,309.167 523.5,308.833 523.5,308.5C 571.525,310.724 619.525,313.391 667.5,316.5C 664.713,317.477 661.713,317.81 658.5,317.5C 613.524,314.558 568.524,311.891 523.5,309.5 Z"/></g>
<g><path style="opacity:1" fill="#303319" d="M 932.5,291.5 C 912,298.599 891,304.432 869.5,309C 836.947,316.839 803.947,319.672 770.5,317.5C 770.5,317.167 770.5,316.833 770.5,316.5C 793.949,317.338 817.282,316.172 840.5,313C 871.498,307.035 902.164,299.869 932.5,291.5 Z"/></g>
<g><path style="opacity:1" fill="#b29e0d" d="M 225.5,308.5 C 225.5,308.833 225.5,309.167 225.5,309.5C 218.456,312.076 211.123,313.576 203.5,314C 208.756,312.942 213.756,311.442 218.5,309.5C 220.861,309.326 223.194,308.993 225.5,308.5 Z"/></g>
<g><path style="opacity:1" fill="#867710" d="M 297.5,315.5 C 298.043,315.56 298.376,315.893 298.5,316.5C 295.914,317.48 293.247,317.813 290.5,317.5C 292.833,316.833 295.167,316.167 297.5,315.5 Z"/></g>
<g><path style="opacity:1" fill="#b9a409" d="M 201.5,316.5 C 222.994,317.497 244.66,317.831 266.5,317.5C 266.5,317.833 266.5,318.167 266.5,318.5C 242.121,318.834 219.121,318.501 197.5,317.5C 198.833,317.167 200.167,316.833 201.5,316.5 Z"/></g>
<g><path style="opacity:1" fill="#2e3e15" d="M 667.5,316.5 C 701.833,316.5 736.167,316.5 770.5,316.5C 770.5,316.833 770.5,317.167 770.5,317.5C 856.998,318.499 943.665,318.833 1030.5,318.5C 793.294,319.832 555.961,319.832 318.5,318.5C 319.209,317.596 320.209,317.263 321.5,317.5C 322.348,318.625 323.348,318.625 324.5,317.5C 435.833,318.833 547.167,318.833 658.5,317.5C 661.713,317.81 664.713,317.477 667.5,316.5 Z"/></g>
<g><path style="opacity:1" fill="#253a15" d="M 182.5,317.5 C 182.389,318.117 182.056,318.617 181.5,319C 125.332,319.832 69.3318,319.665 13.5,318.5C 69.8751,318.825 126.208,318.492 182.5,317.5 Z"/></g>
<g><path style="opacity:0.861" fill="#1c1d1a" d="M 12.5,335.5 C 14.1667,335.5 15.8333,335.5 17.5,335.5C 17.5,338.833 17.5,342.167 17.5,345.5C 22.5,345.5 27.5,345.5 32.5,345.5C 32.5,342.167 32.5,338.833 32.5,335.5C 34.1667,335.5 35.8333,335.5 37.5,335.5C 37.5,343.167 37.5,350.833 37.5,358.5C 35.8333,358.5 34.1667,358.5 32.5,358.5C 32.5,355.167 32.5,351.833 32.5,348.5C 27.5,348.5 22.5,348.5 17.5,348.5C 17.5,351.833 17.5,355.167 17.5,358.5C 15.8333,358.5 14.1667,358.5 12.5,358.5C 12.5,350.833 12.5,343.167 12.5,335.5 Z"/></g>
<g><path style="opacity:0.854" fill="#1c1d1a" d="M 75.5,335.5 C 80.8746,335.172 86.2079,335.505 91.5,336.5C 91.2907,337.086 90.9574,337.586 90.5,338C 87.1832,338.498 83.8499,338.665 80.5,338.5C 80.5,340.833 80.5,343.167 80.5,345.5C 83.8333,345.5 87.1667,345.5 90.5,345.5C 90.5,346.5 90.5,347.5 90.5,348.5C 87.1667,348.5 83.8333,348.5 80.5,348.5C 80.5,350.833 80.5,353.167 80.5,355.5C 84.1667,355.5 87.8333,355.5 91.5,355.5C 91.5,356.5 91.5,357.5 91.5,358.5C 86.1667,358.5 80.8333,358.5 75.5,358.5C 75.5,350.833 75.5,343.167 75.5,335.5 Z"/></g>
<g><path style="opacity:0.807" fill="#1c1d1a" d="M 139.5,335.5 C 141.167,335.5 142.833,335.5 144.5,335.5C 144.5,336.5 144.5,337.5 144.5,338.5C 154.06,337.889 158.226,342.223 157,351.5C 153.572,354.904 149.405,356.571 144.5,356.5C 144.5,357.5 144.5,358.5 144.5,359.5C 142.833,359.5 141.167,359.5 139.5,359.5C 139.5,358.5 139.5,357.5 139.5,356.5C 132.85,356.686 128.517,353.686 126.5,347.5C 128.149,340.828 132.482,337.828 139.5,338.5C 139.5,337.5 139.5,336.5 139.5,335.5 Z M 136.5,341.5 C 137.5,341.5 138.5,341.5 139.5,341.5C 139.666,345.514 139.499,349.514 139,353.5C 130.438,350.778 129.605,346.778 136.5,341.5 Z M 144.5,341.5 C 151.357,341.508 153.69,344.675 151.5,351C 149.341,351.912 147.175,352.745 145,353.5C 144.501,349.514 144.334,345.514 144.5,341.5 Z"/></g>
<g><path style="opacity:0.847" fill="#1c1d1a" d="M 191.5,335.5 C 199.507,335.334 207.507,335.5 215.5,336C 212.635,338.286 209.302,339.12 205.5,338.5C 205.5,345.167 205.5,351.833 205.5,358.5C 203.833,358.5 202.167,358.5 200.5,358.5C 200.5,351.833 200.5,345.167 200.5,338.5C 197.5,338.5 194.5,338.5 191.5,338.5C 191.5,337.5 191.5,336.5 191.5,335.5 Z"/></g>
<g><path style="opacity:0.801" fill="#1c1d1a" d="M 254.5,335.5 C 259.5,335.5 264.5,335.5 269.5,335.5C 269.5,343.167 269.5,350.833 269.5,358.5C 267.833,358.5 266.167,358.5 264.5,358.5C 264.5,355.5 264.5,352.5 264.5,349.5C 259.222,349.756 255.555,352.423 253.5,357.5C 251.235,358.647 248.902,358.814 246.5,358C 248.833,355 251.167,352 253.5,349C 248.045,344.011 248.378,339.511 254.5,335.5 Z M 257.5,338.5 C 259.833,338.5 262.167,338.5 264.5,338.5C 264.5,341.167 264.5,343.833 264.5,346.5C 261.193,346.937 258.193,346.27 255.5,344.5C 254.418,341.982 255.085,339.982 257.5,338.5 Z"/></g>
<g><path style="opacity:0.861" fill="#1c1d1a" d="M 307.5,335.5 C 309.167,335.5 310.833,335.5 312.5,335.5C 312.5,338.833 312.5,342.167 312.5,345.5C 317.5,345.5 322.5,345.5 327.5,345.5C 327.5,342.167 327.5,338.833 327.5,335.5C 329.167,335.5 330.833,335.5 332.5,335.5C 332.5,343.167 332.5,350.833 332.5,358.5C 330.833,358.5 329.167,358.5 327.5,358.5C 327.5,355.167 327.5,351.833 327.5,348.5C 322.5,348.5 317.5,348.5 312.5,348.5C 312.5,351.833 312.5,355.167 312.5,358.5C 310.833,358.5 309.167,358.5 307.5,358.5C 307.5,350.833 307.5,343.167 307.5,335.5 Z"/></g>
<g><path style="opacity:0.812" fill="#1c1d1a" d="M 378.5,335.5 C 380.288,335.215 381.955,335.548 383.5,336.5C 387.422,343.342 391.088,350.342 394.5,357.5C 392.926,358.631 391.259,358.798 389.5,358C 388.5,356.333 387.5,354.667 386.5,353C 382.833,352.333 379.167,352.333 375.5,353C 374.5,354.667 373.5,356.333 372.5,358C 370.741,358.798 369.074,358.631 367.5,357.5C 371.193,350.114 374.86,342.78 378.5,335.5 Z M 380.5,341.5 C 382.059,343.608 383.392,345.941 384.5,348.5C 382.167,349.833 379.833,349.833 377.5,348.5C 378.788,346.261 379.788,343.928 380.5,341.5 Z"/></g>
<g><path style="opacity:0.801" fill="#1c1d1a" d="M 434.5,335.5 C 439.5,335.5 444.5,335.5 449.5,335.5C 449.5,343.167 449.5,350.833 449.5,358.5C 447.833,358.5 446.167,358.5 444.5,358.5C 444.5,355.5 444.5,352.5 444.5,349.5C 439.222,349.756 435.555,352.423 433.5,357.5C 431.235,358.647 428.902,358.814 426.5,358C 428.833,355 431.167,352 433.5,349C 428.045,344.011 428.378,339.511 434.5,335.5 Z M 437.5,338.5 C 439.833,338.5 442.167,338.5 444.5,338.5C 444.5,341.167 444.5,343.833 444.5,346.5C 441.193,346.937 438.193,346.27 435.5,344.5C 434.418,341.982 435.085,339.982 437.5,338.5 Z"/></g>
<g><path style="opacity:0.823" fill="#1c1d1a" d="M 569.5,335.5 C 571.167,335.5 572.833,335.5 574.5,335.5C 574.5,338.833 574.5,342.167 574.5,345.5C 576.199,345.66 577.866,345.494 579.5,345C 581.32,341.864 583.32,338.864 585.5,336C 587.473,335.505 589.473,335.338 591.5,335.5C 591.5,336.5 591.5,337.5 591.5,338.5C 590.178,338.33 589.011,338.663 588,339.5C 586.877,342.249 585.377,344.749 583.5,347C 586.5,350.667 589.5,354.333 592.5,358C 590.5,358.667 588.5,358.667 586.5,358C 584.5,355.333 582.5,352.667 580.5,350C 578.655,348.872 576.655,348.372 574.5,348.5C 574.5,351.833 574.5,355.167 574.5,358.5C 572.833,358.5 571.167,358.5 569.5,358.5C 569.5,350.833 569.5,343.167 569.5,335.5 Z"/></g>
<g><path style="opacity:0.783" fill="#1c1d1a" d="M 634.5,335.5 C 640.762,334.872 646.762,335.705 652.5,338C 660.103,346.373 658.77,353.04 648.5,358C 642.245,359.127 636.245,358.46 630.5,356C 622.976,347.513 624.31,340.68 634.5,335.5 Z M 637.5,338.5 C 644.985,337.236 649.985,340.069 652.5,347C 651.103,352.705 647.437,355.538 641.5,355.5C 632.19,354.529 629.357,349.863 633,341.5C 634.652,340.601 636.152,339.601 637.5,338.5 Z"/></g>
<g><path style="opacity:0.831" fill="#1c1d1a" d="M 694.5,335.5 C 696.199,335.34 697.866,335.506 699.5,336C 702.883,339.928 706.383,343.761 710,347.5C 713.167,343.667 716.333,339.833 719.5,336C 721.473,335.505 723.473,335.338 725.5,335.5C 725.5,343.167 725.5,350.833 725.5,358.5C 723.833,358.5 722.167,358.5 720.5,358.5C 720.666,353.156 720.499,347.823 720,342.5C 717.281,346.72 713.781,350.054 709.5,352.5C 706.209,349.711 703.042,346.711 700,343.5C 699.501,348.489 699.334,353.489 699.5,358.5C 697.833,358.5 696.167,358.5 694.5,358.5C 694.5,350.833 694.5,343.167 694.5,335.5 Z"/></g>
<g><path style="opacity:0.862" fill="#1c1d1a" d="M 762.5,335.5 C 770.5,335.5 778.5,335.5 786.5,335.5C 786.5,343.167 786.5,350.833 786.5,358.5C 784.833,358.5 783.167,358.5 781.5,358.5C 781.5,351.833 781.5,345.167 781.5,338.5C 776.833,338.5 772.167,338.5 767.5,338.5C 767.5,345.167 767.5,351.833 767.5,358.5C 765.833,358.5 764.167,358.5 762.5,358.5C 762.5,350.833 762.5,343.167 762.5,335.5 Z"/></g>
<g><path style="opacity:0.812" fill="#1c1d1a" d="M 832.5,335.5 C 834.288,335.215 835.955,335.548 837.5,336.5C 841.422,343.342 845.088,350.342 848.5,357.5C 846.926,358.631 845.259,358.798 843.5,358C 842.5,356.333 841.5,354.667 840.5,353C 836.833,352.333 833.167,352.333 829.5,353C 828.5,354.667 827.5,356.333 826.5,358C 824.741,358.798 823.074,358.631 821.5,357.5C 825.193,350.114 828.86,342.78 832.5,335.5 Z M 834.5,341.5 C 836.059,343.608 837.392,345.941 838.5,348.5C 836.167,349.833 833.833,349.833 831.5,348.5C 832.788,346.261 833.788,343.928 834.5,341.5 Z"/></g>
<g><path style="opacity:0.861" fill="#1c1d1a" d="M 884.5,335.5 C 886.167,335.5 887.833,335.5 889.5,335.5C 889.5,338.833 889.5,342.167 889.5,345.5C 894.5,345.5 899.5,345.5 904.5,345.5C 904.5,342.167 904.5,338.833 904.5,335.5C 906.167,335.5 907.833,335.5 909.5,335.5C 909.5,343.167 909.5,350.833 909.5,358.5C 907.833,358.5 906.167,358.5 904.5,358.5C 904.5,355.167 904.5,351.833 904.5,348.5C 899.5,348.5 894.5,348.5 889.5,348.5C 889.5,351.833 889.5,355.167 889.5,358.5C 887.833,358.5 886.167,358.5 884.5,358.5C 884.5,350.833 884.5,343.167 884.5,335.5 Z"/></g>
<g><path style="opacity:0.845" fill="#1c1d1a" d="M 947.5,335.5 C 949.167,335.5 950.833,335.5 952.5,335.5C 952.334,340.844 952.501,346.177 953,351.5C 958.167,346.333 963.333,341.167 968.5,336C 970.473,335.505 972.473,335.338 974.5,335.5C 974.5,343.167 974.5,350.833 974.5,358.5C 972.833,358.5 971.167,358.5 969.5,358.5C 969.666,352.824 969.499,347.157 969,341.5C 963.5,347 958,352.5 952.5,358C 950.866,358.494 949.199,358.66 947.5,358.5C 947.5,350.833 947.5,343.167 947.5,335.5 Z"/></g>
<g><path style="opacity:0.801" fill="#1c1d1a" d="M 1017.5,335.5 C 1022.5,335.5 1027.5,335.5 1032.5,335.5C 1032.5,343.167 1032.5,350.833 1032.5,358.5C 1030.83,358.5 1029.17,358.5 1027.5,358.5C 1027.5,355.5 1027.5,352.5 1027.5,349.5C 1022.22,349.756 1018.56,352.423 1016.5,357.5C 1014.24,358.647 1011.9,358.814 1009.5,358C 1011.83,355 1014.17,352 1016.5,349C 1011.04,344.011 1011.38,339.511 1017.5,335.5 Z M 1020.5,338.5 C 1022.83,338.5 1025.17,338.5 1027.5,338.5C 1027.5,341.167 1027.5,343.833 1027.5,346.5C 1024.19,346.937 1021.19,346.27 1018.5,344.5C 1017.42,341.982 1018.08,339.982 1020.5,338.5 Z"/></g>
</svg>
