<?xml version="1.0" standalone="no"?>
<!DOCTYPE svg PUBLIC "-//W3C//DTD SVG 20010904//EN"
 "http://www.w3.org/TR/2001/REC-SVG-20010904/DTD/svg10.dtd">
<svg version="1.0" xmlns="http://www.w3.org/2000/svg"
 width="900.000000pt" height="690.000000pt" viewBox="0 0 900.000000 690.000000"
 preserveAspectRatio="xMidYMid meet">

<g transform="translate(0.000000,690.000000) scale(0.100000,-0.100000)"
fill="#808080" stroke="none">
<path d="M4838 6768 c-224 -366 -326 -719 -326 -1133 0 -281 44 -514 149 -790
55 -144 211 -417 229 -399 26 28 100 155 151 260 137 281 216 620 217 929 0
385 -115 784 -321 1118 l-54 88 -45 -73z m188 -416 c119 -294 165 -631 134
-968 -15 -154 -28 -194 -29 -88 -2 185 -35 398 -90 575 -33 109 -97 273 -134
344 l-25 50 -45 -95 c-58 -121 -110 -273 -147 -422 -27 -109 -39 -201 -58
-448 l-8 -95 -13 148 c-24 265 -7 534 48 749 38 147 156 445 208 525 l17 25
54 -107 c29 -59 69 -146 88 -193z m-65 -1172 c19 -77 23 -120 23 -230 0 -149
-21 -249 -73 -364 l-29 -61 -26 56 c-55 117 -70 199 -70 384 0 157 2 177 27
258 15 49 37 107 49 130 l21 42 27 -60 c15 -33 38 -103 51 -155z"/>
<path d="M4280 5664 c-14 -2 -59 -9 -100 -15 -170 -25 -402 -124 -551 -234
-142 -105 -268 -244 -354 -390 -390 -658 -136 -1508 550 -1845 207 -101 350
-134 585 -133 120 0 178 5 257 22 243 51 460 163 629 323 l74 71 -2 446 -3
446 -477 1 -477 1 -3 -204 c-2 -112 -2 -203 -1 -203 2 0 23 15 47 34 179 136
445 67 548 -142 30 -61 33 -75 33 -157 0 -76 -5 -99 -27 -147 -63 -136 -233
-260 -422 -309 -99 -26 -258 -25 -361 1 -331 85 -555 374 -555 715 0 281 149
523 401 655 81 42 216 80 287 80 l42 0 0 495 0 495 -47 -1 c-27 -1 -59 -3 -73
-5z"/>
<path d="M1290 2060 l0 -800 155 0 155 0 0 700 0 700 140 0 140 0 0 100 0 100
-295 0 -295 0 0 -800z"/>
<path d="M1964 2060 l-80 -800 151 0 152 0 6 93 c4 50 10 145 13 210 l7 117
73 0 72 0 6 -47 c3 -27 8 -93 11 -148 3 -55 8 -128 11 -162 l6 -63 149 0 c130
0 149 2 149 16 0 24 -149 1514 -156 1552 l-5 32 -242 0 -242 0 -81 -800z m336
573 c0 -16 11 -192 25 -393 14 -201 25 -368 25 -372 0 -5 -27 -8 -60 -8 l-60
0 0 33 c0 17 11 196 25 397 14 201 25 366 25 368 0 1 5 2 10 2 6 0 10 -12 10
-27z"/>
<path d="M2940 2833 c-44 -23 -59 -37 -80 -78 -23 -46 -25 -60 -28 -227 l-4
-178 156 0 156 0 0 143 c0 150 5 167 45 167 42 0 45 -14 45 -226 0 -111 -3
-210 -6 -219 -12 -31 -59 -45 -154 -45 l-90 0 0 -90 0 -90 100 0 c94 0 103 -2
125 -25 l25 -24 0 -225 c0 -191 -2 -227 -16 -240 -20 -20 -38 -20 -58 0 -13
13 -16 44 -16 180 l0 164 -155 0 -155 0 0 -187 c0 -104 5 -204 10 -224 16 -57
51 -102 100 -126 41 -22 57 -23 245 -23 188 0 204 1 245 23 49 24 84 69 100
126 5 20 10 149 10 286 0 240 -1 253 -22 295 -27 52 -89 90 -150 90 -21 0 -38
5 -38 10 0 6 15 10 33 10 38 0 105 30 129 56 42 48 48 84 48 307 0 240 -8 285
-64 341 -49 48 -91 56 -298 56 -181 0 -185 0 -238 -27z"/>
<path d="M3750 2060 l0 -800 155 0 155 0 0 700 0 700 45 0 45 0 0 -700 0 -700
155 0 155 0 0 800 0 800 -355 0 -355 0 0 -800z"/>
<path d="M4670 2060 l0 -800 155 0 155 0 0 269 0 269 128 3 c117 4 131 6 174
31 33 20 53 41 70 75 23 48 23 50 23 428 0 374 0 381 -22 422 -25 45 -59 74
-112 91 -22 8 -126 12 -302 12 l-269 0 0 -800z m382 583 c17 -15 18 -38 18
-321 0 -336 -1 -342 -62 -342 l-28 0 0 340 0 340 27 0 c14 0 35 -7 45 -17z"/>
<path d="M5726 2846 c-47 -18 -92 -59 -114 -106 -15 -31 -17 -101 -20 -659 -3
-672 -2 -690 50 -756 44 -56 82 -65 303 -65 174 0 205 3 241 19 45 21 85 67
103 120 14 44 16 1259 1 1312 -15 54 -50 100 -95 123 -36 19 -59 21 -235 23
-147 2 -204 -1 -234 -11z m259 -210 c14 -20 15 -92 13 -585 -3 -544 -4 -563
-22 -577 -25 -18 -41 -18 -60 2 -14 14 -16 81 -16 588 0 431 3 575 12 584 20
20 56 14 73 -12z"/>
<path d="M6510 2060 l0 -800 155 0 155 0 0 502 c0 276 2 499 5 496 3 -3 39
-219 80 -479 41 -261 77 -484 80 -496 5 -22 9 -23 129 -23 l123 0 26 163 c14
89 50 314 79 499 29 186 56 338 61 338 4 0 7 -225 7 -500 l0 -500 155 0 155 0
0 800 0 800 -203 0 -203 0 -99 -556 c-59 -331 -102 -548 -107 -537 -3 10 -48
252 -98 538 -50 286 -94 528 -96 538 -5 15 -23 17 -205 17 l-199 0 0 -800z"/>
<path d="M1280 560 l0 -550 3228 0 3227 0 0 550 0 550 -3227 0 -3228 0 0 -550z
m460 215 l0 -135 40 0 40 0 0 135 0 135 85 0 85 0 0 -345 0 -345 -85 0 -85 0
0 150 0 150 -40 0 -40 0 0 -150 0 -150 -80 0 -80 0 0 345 0 345 80 0 80 0 0
-135z m1510 70 l0 -65 -70 0 -70 0 0 -70 0 -70 65 0 65 0 0 -60 0 -60 -65 0
-65 0 0 -90 0 -90 75 0 75 0 0 -60 0 -60 -160 0 -160 0 0 345 0 345 155 0 155
0 0 -65z m1330 41 c0 -22 6 -24 72 -34 80 -12 115 -32 141 -83 16 -30 17 -57
15 -211 -3 -161 -5 -179 -24 -205 -24 -32 -87 -59 -156 -68 -45 -6 -48 -8 -48
-36 l0 -29 -80 0 -80 0 0 29 c0 28 -3 30 -47 36 -76 10 -87 13 -124 38 -49 33
-58 69 -58 252 -1 222 18 256 157 277 66 10 72 12 72 34 0 23 2 24 80 24 78 0
80 -1 80 -24z m1520 -41 l0 -65 -55 0 -55 0 0 -280 0 -280 -80 0 -80 0 0 280
0 280 -55 0 -55 0 0 65 0 65 190 0 190 0 0 -65z m1080 -69 l0 -133 73 -5 c142
-9 171 -47 165 -221 -2 -93 -6 -117 -23 -139 -34 -45 -60 -52 -222 -56 l-153
-4 0 346 0 346 80 0 80 0 0 -134z"/>
<path d="M4361 716 c-8 -9 -11 -59 -9 -152 l3 -139 33 -3 32 -3 0 155 0 156
-24 0 c-13 0 -29 -6 -35 -14z"/>
<path d="M4580 574 l0 -155 33 3 32 3 3 139 c3 148 -2 166 -44 166 l-24 0 0
-156z"/>
<path d="M7180 430 l0 -90 28 0 c42 0 52 17 52 90 0 73 -10 90 -52 90 l-28 0
0 -90z"/>
</g>
</svg>
